<svg width="19" height="19" viewBox="0 0 19 19" fill="none" xmlns="http://www.w3.org/2000/svg">
<path fill-rule="evenodd" clip-rule="evenodd" d="M15.9083 16.0338H13.2403V11.8558C13.2403 10.8608 13.2233 9.5788 11.8533 9.5788C10.4633 9.5788 10.2523 10.6648 10.2523 11.7858V16.0338H7.58431V7.4438H10.1433V8.6178H10.1803C10.5363 7.9428 11.4073 7.2308 12.7063 7.2308C15.4093 7.2308 15.9093 9.0088 15.9093 11.3228V16.0338H15.9083ZM4.57531 6.2708C4.37203 6.271 4.17069 6.23115 3.9828 6.15354C3.79492 6.07593 3.62416 5.96207 3.48027 5.81846C3.33639 5.67486 3.2222 5.50432 3.14422 5.31658C3.06624 5.12884 3.02601 4.92759 3.02581 4.7243C3.02562 4.52101 3.06546 4.31968 3.14307 4.13179C3.22069 3.94391 3.33454 3.77314 3.47815 3.62926C3.62176 3.48538 3.7923 3.37119 3.98003 3.29321C4.16777 3.21523 4.36903 3.175 4.57231 3.1748C4.98287 3.1744 5.37677 3.33711 5.66735 3.62714C5.95794 3.91716 6.12141 4.31075 6.12181 4.7213C6.12221 5.13186 5.9595 5.52575 5.66947 5.81634C5.37945 6.10693 4.98587 6.2704 4.57531 6.2708ZM3.23831 16.0338H5.91031V7.4438H3.23731V16.0338H3.23831ZM17.2383 0.695801H1.89831C1.16531 0.695801 0.570312 1.2768 0.570312 1.9938V17.3968C0.570312 18.1138 1.16531 18.6958 1.89831 18.6958H17.2383C17.9723 18.6958 18.5703 18.1138 18.5703 17.3968V1.9938C18.5703 1.2768 17.9723 0.695801 17.2383 0.695801Z" fill="#216CFF"/>
</svg>
