<svg width="22" height="22" viewBox="0 0 22 22" fill="none" xmlns="http://www.w3.org/2000/svg">
<path d="M3.88452 0.489624C2.22767 0.489624 0.884521 1.83277 0.884521 3.48962V6.48962C0.884521 8.14648 2.22767 9.48962 3.88452 9.48962H6.88452C8.54138 9.48962 9.88452 8.14648 9.88452 6.48962V3.48962C9.88452 1.83277 8.54138 0.489624 6.88452 0.489624H3.88452Z" fill="#216CFF"/>
<path d="M3.88452 12.4896C2.22767 12.4896 0.884521 13.8328 0.884521 15.4896V18.4896C0.884521 20.1465 2.22767 21.4896 3.88452 21.4896H6.88452C8.54138 21.4896 9.88452 20.1465 9.88452 18.4896V15.4896C9.88452 13.8328 8.54138 12.4896 6.88452 12.4896H3.88452Z" fill="#216CFF"/>
<path d="M12.8845 3.48962C12.8845 1.83277 14.2277 0.489624 15.8845 0.489624H18.8845C20.5414 0.489624 21.8845 1.83277 21.8845 3.48962V6.48962C21.8845 8.14648 20.5414 9.48962 18.8845 9.48962H15.8845C14.2277 9.48962 12.8845 8.14648 12.8845 6.48962V3.48962Z" fill="#216CFF"/>
<path d="M17.3845 12.4896C18.2129 12.4896 18.8845 13.1612 18.8845 13.9896V15.4896H20.3845C21.2129 15.4896 21.8845 16.1612 21.8845 16.9896C21.8845 17.8181 21.2129 18.4896 20.3845 18.4896H18.8845V19.9896C18.8845 20.8181 18.2129 21.4896 17.3845 21.4896C16.5561 21.4896 15.8845 20.8181 15.8845 19.9896V18.4896H14.3845C13.5561 18.4896 12.8845 17.8181 12.8845 16.9896C12.8845 16.1612 13.5561 15.4896 14.3845 15.4896H15.8845V13.9896C15.8845 13.1612 16.5561 12.4896 17.3845 12.4896Z" fill="#216CFF"/>
</svg>
