<svg width="22" height="20" viewBox="0 0 22 20" fill="none" xmlns="http://www.w3.org/2000/svg">
<path fill-rule="evenodd" clip-rule="evenodd" d="M1.66206 0.508759C0.94409 0.508759 0.362061 1.09079 0.362061 1.80876C0.362061 2.52673 0.94409 3.10876 1.66206 3.10876V13.5088C1.66206 14.9447 2.82612 16.1088 4.26206 16.1088H7.62358L5.94282 17.7895C5.43514 18.2972 5.43514 19.1203 5.94282 19.628C6.4505 20.1357 7.27362 20.1357 7.7813 19.628L10.7621 16.6472L13.7428 19.628C14.2505 20.1357 15.0736 20.1357 15.5813 19.628C16.089 19.1203 16.089 18.2972 15.5813 17.7895L13.9005 16.1088H17.2621C18.698 16.1088 19.8621 14.9447 19.8621 13.5088V3.10876C20.58 3.10876 21.1621 2.52673 21.1621 1.80876C21.1621 1.09079 20.58 0.508759 19.8621 0.508759H1.66206ZM16.8813 6.628C17.389 6.12032 17.389 5.2972 16.8813 4.78952C16.3736 4.28184 15.5505 4.28184 15.0428 4.78952L10.7621 9.07028L9.0813 7.38952C8.57362 6.88184 7.7505 6.88184 7.24282 7.38952L4.64282 9.98952C4.13514 10.4972 4.13514 11.3203 4.64282 11.828C5.1505 12.3357 5.97362 12.3357 6.4813 11.828L8.16206 10.1472L9.84282 11.828C10.3505 12.3357 11.1736 12.3357 11.6813 11.828L16.8813 6.628Z" fill="white"/>
</svg>
