<svg width="27" height="33" viewBox="0 0 27 33" fill="none" xmlns="http://www.w3.org/2000/svg">
<g clip-path="url(#clip0_24241_6439)">
<path d="M21.6071 16.6264C19.2733 15.7248 16.5946 16.7717 15.6335 18.9599C14.9283 20.5653 15.4533 22.526 16.8777 24.0349C16.8343 24.0322 16.7909 24.0289 16.7485 24.0254C16.3583 23.9909 16.0129 24.2621 15.9774 24.6281C15.9419 24.9944 16.2295 25.3182 16.6199 25.3515C16.8071 25.3676 17.0047 25.3753 17.2105 25.3753C19.6403 25.3753 23.199 24.269 24.0945 22.2304C24.5604 21.1705 24.5578 20.0036 24.0882 18.9451C23.6183 17.8866 22.7373 17.0631 21.6074 16.6264H21.6071ZM22.7823 21.723C22.3342 22.7429 20.557 23.5667 18.8005 23.8938C17.334 22.857 16.2513 21.0484 16.9458 19.4674C17.2669 18.736 17.8726 18.1659 18.6507 17.862C19.0418 17.7093 19.4528 17.6329 19.8639 17.6329C20.2749 17.6329 20.6786 17.7081 21.0666 17.8578C21.8462 18.159 22.4539 18.727 22.7778 19.4573C23.1021 20.1875 23.1037 20.9922 22.7823 21.7233V21.723Z" fill="white"/>
<path d="M22.4284 14.7566C21.1095 14.2468 19.686 14.1449 18.3253 14.4477C18.3687 13.1931 18.3788 11.168 18.3788 8.59173C18.3788 6.68451 17.419 4.68965 15.7457 3.11872C14.0465 1.52372 11.8463 0.608734 9.70943 0.608734C7.57255 0.608734 5.37235 1.52372 3.67279 3.11902C1.99952 4.68965 1.04002 6.68451 1.04002 8.59202C1.04002 9.09527 1.03875 9.71823 1.03717 10.4143C1.02988 13.65 1.01912 18.5396 1.13122 20.3241C1.14483 20.5422 1.2696 20.729 1.4501 20.8404C1.338 21.1624 1.25947 21.4996 1.22083 21.8496L0.616632 27.3455C0.496932 28.4363 0.877249 29.529 1.66037 30.3429C2.44317 31.1569 3.56259 31.6239 4.73141 31.6239H13.8299C13.8812 31.6798 13.9407 31.73 14.0129 31.7686C14.2641 31.9035 14.5285 32.0247 14.798 32.1287C15.6254 32.4486 16.494 32.6084 17.3627 32.6084C18.2313 32.6084 19.116 32.4456 19.9498 32.1197C21.6095 31.4715 22.9009 30.2553 23.5858 28.696L26.0872 23.0004C27.5011 19.781 25.8595 16.0828 22.4281 14.7563L22.4284 14.7566ZM2.45615 10.417C2.45774 9.71972 2.459 9.09616 2.459 8.59173C2.459 5.23478 6.05033 1.94022 9.70911 1.94022C13.3679 1.94022 16.9592 5.23508 16.9592 8.59173C16.9592 11.1858 16.9494 13.7311 16.8832 14.9346C15.5975 15.5284 14.5624 16.4767 13.9018 17.6647C13.5265 17.5836 13.1418 17.542 12.7536 17.542H6.30873C4.80171 17.542 3.44099 18.1501 2.50207 19.1304C2.44127 16.9202 2.44982 13.0983 2.45584 10.4167L2.45615 10.417ZM2.71424 29.4508C2.19237 28.9081 1.94885 28.2088 2.02834 27.4818L2.63191 21.9859C2.82697 20.2115 4.40746 18.8735 6.30905 18.8735H12.7539C12.9448 18.8735 13.1345 18.8877 13.3217 18.9151L11.1389 23.8845C10.7684 24.7276 10.6015 25.6102 10.6363 26.5113H5.89897C5.50693 26.5113 5.18931 26.8092 5.18931 27.177C5.18931 27.5448 5.50693 27.8428 5.89897 27.8428H14.665C15.3847 27.8428 15.9703 28.3923 15.9703 29.0676C15.9703 29.7428 15.3847 30.2924 14.665 30.2924H4.73173C3.95273 30.2924 3.23611 29.9936 2.71424 29.4511V29.4508ZM24.7752 22.4933L22.2739 28.1889C21.7333 29.4193 20.7143 30.3789 19.4045 30.8907C18.3852 31.2888 17.2848 31.3771 16.228 31.1581C16.9295 30.695 17.3899 29.9312 17.3899 29.0673C17.3899 27.658 16.1675 26.5113 14.6653 26.5113H12.0566C12.0211 25.7849 12.1522 25.0725 12.4511 24.3919L14.9525 18.6967C15.493 17.4662 16.5121 16.5067 17.8218 15.9948C19.1319 15.483 20.5752 15.4806 21.8875 15.9877C23.1992 16.4948 24.222 17.4508 24.7676 18.6795C25.3129 19.9082 25.3158 21.2629 24.7752 22.4936V22.4933Z" fill="white"/>
<path d="M9.68199 17.0322C13.3176 17.0322 16.0606 13.7778 16.0679 9.4592C16.1335 8.18743 15.1679 7.48781 14.2338 6.81138C13.3047 6.1385 12.3439 5.44275 11.9572 4.07443C11.8736 3.77824 11.5772 3.57059 11.2593 3.5795C10.9331 3.58485 10.6526 3.79785 10.5797 4.09641C10.1763 5.74993 8.38682 6.29417 6.65591 6.82059C5.01652 7.31937 3.32077 7.83509 3.28467 9.44138C3.28467 13.6266 6.15463 17.0319 9.68199 17.0319V17.0322ZM7.09386 8.08761C8.53818 7.64823 10.2501 7.12746 11.2508 5.86519C11.8565 6.77216 12.6704 7.36126 13.3667 7.8654C14.2328 8.49252 14.6834 8.84604 14.6499 9.40424C14.6492 9.41672 14.6489 9.4289 14.6489 9.44138C14.6489 13.0095 12.5136 15.7004 9.6823 15.7004C6.85098 15.7004 4.70429 12.8925 4.70429 9.45564C4.71791 8.85317 5.61629 8.53708 7.09418 8.08731L7.09386 8.08761Z" fill="white"/>
</g>
<defs>
<clipPath id="clip0_24241_6439">
<rect width="26" height="32" fill="white" transform="translate(0.595215 0.608673)"/>
</clipPath>
</defs>
</svg>
