<svg width="25" height="25" viewBox="0 0 25 25" fill="none" xmlns="http://www.w3.org/2000/svg">
<path fill-rule="evenodd" clip-rule="evenodd" d="M14.6184 2.44162C14.0498 0.0997409 10.7192 0.0997398 10.1507 2.44162C9.78343 3.95445 8.0502 4.67238 6.72077 3.86234C4.66279 2.6084 2.30771 4.96348 3.56165 7.02146C4.37169 8.35088 3.65376 10.0841 2.14093 10.4514C-0.20095 11.0199 -0.200949 14.3505 2.14093 14.919C3.65376 15.2863 4.37169 17.0195 3.56166 18.349C2.30771 20.4069 4.66279 22.762 6.72077 21.5081C8.0502 20.698 9.78343 21.416 10.1507 22.9288C10.7192 25.2707 14.0498 25.2707 14.6184 22.9288C14.9856 21.416 16.7189 20.698 18.0483 21.5081C20.1063 22.762 22.4613 20.4069 21.2074 18.349C20.3974 17.0195 21.1153 15.2863 22.6281 14.919C24.97 14.3505 24.97 11.0199 22.6281 10.4514C21.1153 10.0841 20.3974 8.35088 21.2074 7.02146C22.4613 4.96348 20.1063 2.6084 18.0483 3.86234C16.7189 4.67238 14.9856 3.95445 14.6184 2.44162ZM12.3845 17.1852C14.8698 17.1852 16.8845 15.1705 16.8845 12.6852C16.8845 10.1999 14.8698 8.18521 12.3845 8.18521C9.89924 8.18521 7.88452 10.1999 7.88452 12.6852C7.88452 15.1705 9.89924 17.1852 12.3845 17.1852Z" fill="#216CFF"/>
</svg>
