<svg width="48" height="48" viewBox="0 0 48 48" fill="none" xmlns="http://www.w3.org/2000/svg">
<rect width="48" height="48" rx="6" fill="#216CFF"/>
<path d="M24 14.4C23.3373 14.4 22.8 14.9373 22.8 15.6V16.8C22.8 17.4628 23.3373 18 24 18C24.6627 18 25.2 17.4628 25.2 16.8V15.6C25.2 14.9373 24.6627 14.4 24 14.4Z" fill="white"/>
<path fill-rule="evenodd" clip-rule="evenodd" d="M16.8 16.8H20.4C20.4 18.7882 22.0118 20.4 24 20.4C25.9882 20.4 27.6 18.7882 27.6 16.8H31.2C32.5255 16.8 33.6 17.8745 33.6 19.2V30C33.6 31.3255 32.5255 32.4 31.2 32.4H16.8C15.4745 32.4 14.4 31.3255 14.4 30V19.2C14.4 17.8745 15.4745 16.8 16.8 16.8ZM19.8 25.2C20.7941 25.2 21.6 24.3941 21.6 23.4C21.6 22.4059 20.7941 21.6 19.8 21.6C18.8059 21.6 18 22.4059 18 23.4C18 24.3941 18.8059 25.2 19.8 25.2ZM22.7406 30C22.7799 29.8062 22.8006 29.6055 22.8006 29.4C22.8006 27.7432 21.4574 26.4 19.8006 26.4C18.1437 26.4 16.8006 27.7432 16.8006 29.4C16.8006 29.6055 16.8212 29.8062 16.8606 30H22.7406ZM26.4 22.8C25.7373 22.8 25.2 23.3373 25.2 24C25.2 24.6628 25.7373 25.2 26.4 25.2H30C30.6627 25.2 31.2 24.6628 31.2 24C31.2 23.3373 30.6627 22.8 30 22.8H26.4ZM25.2 27.6C25.2 26.9373 25.7373 26.4 26.4 26.4H28.8C29.4627 26.4 30 26.9373 30 27.6C30 28.2628 29.4627 28.8 28.8 28.8H26.4C25.7373 28.8 25.2 28.2628 25.2 27.6Z" fill="white"/>
</svg>
