<svg width="37" height="29" viewBox="0 0 37 29" fill="none" xmlns="http://www.w3.org/2000/svg">
<path d="M16.333 6.97888C16.333 10.2926 13.6467 12.9789 10.333 12.9789C7.0193 12.9789 4.33301 10.2926 4.33301 6.97888C4.33301 3.66517 7.0193 0.978882 10.333 0.978882C13.6467 0.978882 16.333 3.66517 16.333 6.97888Z" fill="white"/>
<path d="M32.333 6.97888C32.333 10.2926 29.6467 12.9789 26.333 12.9789C23.0193 12.9789 20.333 10.2926 20.333 6.97888C20.333 3.66517 23.0193 0.978882 26.333 0.978882C29.6467 0.978882 32.333 3.66517 32.333 6.97888Z" fill="white"/>
<path d="M24.1913 28.9789C24.2847 28.3257 24.333 27.6579 24.333 26.9789C24.333 23.7085 23.2117 20.7001 21.3325 18.317C22.8035 17.466 24.5114 16.9789 26.333 16.9789C31.8559 16.9789 36.333 21.456 36.333 26.9789V28.9789H24.1913Z" fill="white"/>
<path d="M10.333 16.9789C15.8559 16.9789 20.333 21.456 20.333 26.9789V28.9789H0.333008V26.9789C0.333008 21.456 4.81016 16.9789 10.333 16.9789Z" fill="white"/>
</svg>
