<svg width="25" height="23" viewBox="0 0 25 23" fill="none" xmlns="http://www.w3.org/2000/svg">
<path d="M0.0511475 3.48962C0.0511475 1.83277 1.39429 0.489624 3.05115 0.489624H13.5511C15.208 0.489624 16.5511 1.83277 16.5511 3.48962V9.48962C16.5511 11.1465 15.208 12.4896 13.5511 12.4896H10.5511L6.05115 16.9896V12.4896H3.05115C1.39429 12.4896 0.0511475 11.1465 0.0511475 9.48962V3.48962Z" fill="#216CFF"/>
<path d="M19.5511 6.48962V11.4896C19.5511 13.6988 17.7603 15.4896 15.5511 15.4896H11.7938L9.14374 18.1397C9.56345 18.363 10.0425 18.4896 10.5511 18.4896H13.5511L18.0511 22.9896V18.4896H21.0511C22.708 18.4896 24.0511 17.1465 24.0511 15.4896V9.48962C24.0511 7.83277 22.708 6.48962 21.0511 6.48962H19.5511Z" fill="#216CFF"/>
</svg>
