<svg width="25" height="25" viewBox="0 0 25 25" fill="none" xmlns="http://www.w3.org/2000/svg">
<path d="M19.8845 9.68521C22.3698 9.68521 24.3845 7.67049 24.3845 5.18521C24.3845 2.69993 22.3698 0.685211 19.8845 0.685211C17.3992 0.685211 15.3845 2.69993 15.3845 5.18521C15.3845 5.37344 15.3961 5.55897 15.4185 5.74112L8.00841 9.44618C7.19907 8.66543 6.09787 8.18521 4.88452 8.18521C2.39924 8.18521 0.384521 10.1999 0.384521 12.6852C0.384521 15.1705 2.39924 17.1852 4.88452 17.1852C6.0979 17.1852 7.19911 16.705 8.00846 15.9242L15.4185 19.6292C15.3961 19.8114 15.3845 19.997 15.3845 20.1852C15.3845 22.6705 17.3992 24.6852 19.8845 24.6852C22.3698 24.6852 24.3845 22.6705 24.3845 20.1852C24.3845 17.6999 22.3698 15.6852 19.8845 15.6852C18.6712 15.6852 17.57 16.1654 16.7606 16.9462L9.35052 13.2411C9.37296 13.059 9.38451 12.8734 9.38451 12.6852C9.38451 12.497 9.37295 12.3114 9.35051 12.1292L16.7606 8.4242C17.5699 9.20497 18.6711 9.68521 19.8845 9.68521Z" fill="#216CFF"/>
</svg>
