<svg width="20" height="20" viewBox="0 0 20 20" fill="none" xmlns="http://www.w3.org/2000/svg">
<path fill-rule="evenodd" clip-rule="evenodd" d="M10.0004 19.6C15.3023 19.6 19.6004 15.3019 19.6004 9.99999C19.6004 4.69806 15.3023 0.399994 10.0004 0.399994C4.69846 0.399994 0.400391 4.69806 0.400391 9.99999C0.400391 15.3019 4.69846 19.6 10.0004 19.6ZM14.4489 8.44852C14.9175 7.97989 14.9175 7.22009 14.4489 6.75147C13.9803 6.28284 13.2205 6.28284 12.7519 6.75147L8.80039 10.7029L7.24892 9.15147C6.78029 8.68284 6.02049 8.68284 5.55186 9.15147C5.08323 9.6201 5.08323 10.3799 5.55186 10.8485L7.95186 13.2485C8.42049 13.7172 9.18029 13.7172 9.64891 13.2485L14.4489 8.44852Z" fill="#2F71F4"/>
<path fill-rule="evenodd" clip-rule="evenodd" d="M10.0004 19.6C15.3023 19.6 19.6004 15.3019 19.6004 9.99999C19.6004 4.69806 15.3023 0.399994 10.0004 0.399994C4.69846 0.399994 0.400391 4.69806 0.400391 9.99999C0.400391 15.3019 4.69846 19.6 10.0004 19.6ZM14.4489 8.44852C14.9175 7.97989 14.9175 7.22009 14.4489 6.75147C13.9803 6.28284 13.2205 6.28284 12.7519 6.75147L8.80039 10.7029L7.24892 9.15147C6.78029 8.68284 6.02049 8.68284 5.55186 9.15147C5.08323 9.6201 5.08323 10.3799 5.55186 10.8485L7.95186 13.2485C8.42049 13.7172 9.18029 13.7172 9.64891 13.2485L14.4489 8.44852Z" fill="url(#paint0_linear_29607_6)"/>
<defs>
<linearGradient id="paint0_linear_29607_6" x1="0.400391" y1="9.99999" x2="19.6004" y2="9.99999" gradientUnits="userSpaceOnUse">
<stop stop-color="#9643FF" stop-opacity="0"/>
<stop offset="1" stop-color="#9643FF"/>
</linearGradient>
</defs>
</svg>
