<svg width="20" height="20" viewBox="0 0 20 20" fill="none" xmlns="http://www.w3.org/2000/svg">
<path fill-rule="evenodd" clip-rule="evenodd" d="M19.8503 9.74267C19.8503 15.0446 15.5523 19.3427 10.2504 19.3427C4.94845 19.3427 0.650391 15.0446 0.650391 9.74267C0.650391 4.44074 4.94845 0.14267 10.2504 0.14267C15.5523 0.14267 19.8503 4.44074 19.8503 9.74267ZM12.6504 6.14267C12.6504 7.46815 11.5758 8.54267 10.2504 8.54267C8.92489 8.54267 7.85037 7.46815 7.85037 6.14267C7.85037 4.81719 8.92489 3.74267 10.2504 3.74267C11.5758 3.74267 12.6504 4.81719 12.6504 6.14267ZM10.2503 10.9427C7.82924 10.9427 5.74311 12.3766 4.79486 14.4415C6.11521 15.9731 8.06955 16.9427 10.2503 16.9427C12.4311 16.9427 14.3854 15.9732 15.7058 14.4416C14.7575 12.3767 12.6714 10.9427 10.2503 10.9427Z" fill="#216CFF"/>
</svg>
