<svg width="31" height="25" viewBox="0 0 31 25" fill="none" xmlns="http://www.w3.org/2000/svg">
<path d="M5.37162 16.0062C6.06133 16.0064 6.7356 15.802 7.3092 15.4191C7.88281 15.0361 8.32999 14.4917 8.59421 13.8546C8.85844 13.2175 8.92784 12.5164 8.79366 11.8398C8.65947 11.1633 8.32772 10.5418 7.84034 10.0538C7.35296 9.56576 6.73183 9.23322 6.05548 9.09816C5.37913 8.96311 4.67792 9.03161 4.0405 9.29502C3.40307 9.55842 2.85805 10.0049 2.47434 10.578C2.09063 11.1511 1.88545 11.8251 1.88474 12.5148C1.88473 13.44 2.25196 14.3274 2.90575 14.982C3.55954 15.6366 4.44643 16.005 5.37162 16.0062Z" fill="white"/>
<path d="M7.41278 16.7171H3.33174C2.54357 16.7178 1.78789 17.0312 1.23057 17.5885C0.673257 18.1459 0.359844 18.9015 0.359131 19.6897V23.1595C0.359131 23.3857 0.448963 23.6025 0.608866 23.7624C0.768769 23.9223 0.985643 24.0122 1.21178 24.0122H9.53273C9.7588 24.0119 9.97554 23.922 10.1354 23.7622C10.2952 23.6023 10.3851 23.3856 10.3854 23.1595V19.6897C10.3844 18.9016 10.0709 18.1461 9.51368 17.5888C8.95641 17.0315 8.20087 16.7181 7.41278 16.7171Z" fill="white"/>
<path d="M15.4412 18.784C16.0415 18.7842 16.6283 18.6064 17.1275 18.2731C17.6268 17.9398 18.016 17.4659 18.2459 16.9114C18.4759 16.3569 18.5363 15.7467 18.4195 15.1579C18.3027 14.5691 18.0139 14.0282 17.5897 13.6035C17.1655 13.1788 16.6249 12.8894 16.0362 12.7719C15.4476 12.6544 14.8373 12.714 14.2825 12.9433C13.7278 13.1726 13.2535 13.5613 12.9196 14.0601C12.5857 14.559 12.4072 15.1456 12.4066 15.7459C12.4069 16.5509 12.7266 17.323 13.2955 17.8926C13.8644 18.4622 14.6361 18.7828 15.4412 18.784Z" fill="white"/>
<path d="M11.9846 24.0121H18.8955C19.0834 24.0119 19.2635 23.9371 19.3963 23.8041C19.5291 23.6712 19.6037 23.491 19.6037 23.3031V21.8491C19.603 21.1945 19.3426 20.5669 18.8797 20.104C18.4168 19.6411 17.7892 19.3807 17.1346 19.38H13.7464C13.092 19.381 12.4646 19.6414 12.0019 20.1043C11.5392 20.5672 11.2789 21.1946 11.2782 21.8491V23.3031C11.2782 23.4907 11.3526 23.6706 11.485 23.8035C11.6173 23.9364 11.797 24.0114 11.9846 24.0121Z" fill="white"/>
<path d="M22.0236 12.5149C22.0234 13.2048 22.2278 13.8792 22.611 14.4529C22.9942 15.0266 23.5389 15.4738 24.1762 15.7379C24.8136 16.002 25.5149 16.0711 26.1916 15.9366C26.8682 15.802 27.4898 15.4698 27.9776 14.982C28.4654 14.4942 28.7976 13.8726 28.9322 13.196C29.0667 12.5194 28.9976 11.818 28.7335 11.1807C28.4694 10.5433 28.0222 9.99861 27.4485 9.61544C26.8748 9.23226 26.2004 9.02784 25.5105 9.02802C24.5861 9.0292 23.6998 9.39695 23.0462 10.0506C22.3925 10.7043 22.0248 11.5905 22.0236 12.5149Z" fill="white"/>
<path d="M27.5516 16.7171H23.4706C22.6825 16.7181 21.927 17.0315 21.3697 17.5888C20.8124 18.1461 20.4989 18.9016 20.498 19.6897V23.1595C20.498 23.3857 20.5878 23.6025 20.7477 23.7624C20.9076 23.9223 21.1245 24.0122 21.3506 24.0122H29.6716C29.8977 24.0122 30.1146 23.9223 30.2745 23.7624C30.4344 23.6025 30.5242 23.3857 30.5242 23.1595V19.6897C30.5233 18.9016 30.2098 18.1461 29.6525 17.5888C29.0953 17.0315 28.3397 16.7181 27.5516 16.7171Z" fill="white"/>
<path d="M19.9846 2.00666C19.8696 1.76865 19.7281 1.54435 19.5628 1.33801C19.3143 1.03292 19.0017 0.786268 18.6472 0.615558C18.2927 0.444848 17.905 0.354264 17.5115 0.350238C17.1181 0.346212 16.7285 0.428841 16.3706 0.592261C16.0127 0.755681 15.6951 0.995885 15.4404 1.29582C15.1859 0.995901 14.8684 0.755706 14.5105 0.59229C14.1527 0.428874 13.7632 0.346246 13.3698 0.350272C12.9764 0.354299 12.5888 0.44488 12.2343 0.615587C11.8799 0.786293 11.5674 1.03294 11.319 1.33801C11.1534 1.54413 11.0119 1.76846 10.8972 2.00666C10.5621 2.69452 10.4447 3.46816 10.5606 4.22445C10.6737 4.98003 11.0064 5.68569 11.5173 6.25375L15.1532 10.3034C15.1892 10.3438 15.2333 10.3761 15.2826 10.3983C15.332 10.4204 15.3855 10.4319 15.4395 10.4319C15.4936 10.4319 15.5471 10.4204 15.5965 10.3983C15.6458 10.3761 15.6899 10.3438 15.7259 10.3034L19.3617 6.25375C19.8732 5.68598 20.2063 4.98022 20.3194 4.22445C20.4354 3.46834 20.3187 2.69483 19.9846 2.00666Z" fill="white"/>
</svg>
