<svg width="27" height="19" viewBox="0 0 27 19" fill="none" xmlns="http://www.w3.org/2000/svg">
<path d="M20.7196 15.137C21.1375 15.3419 21.621 15.096 21.7193 14.6453C21.7685 14.4159 21.7439 14.1373 21.5472 13.8259C21.244 13.3588 16.9173 8.61404 13.918 5.36895C13.8279 5.27062 13.6804 5.26242 13.5738 5.34437L11.4268 7.15539C10.468 7.95847 9.04217 7.88472 8.17354 6.9915C7.29671 6.07369 7.27212 4.63963 8.14076 3.71363C8.49313 3.33667 8.89467 2.90236 9.31259 2.46804C9.40274 2.3779 9.33718 2.2222 9.20606 2.2222H3.94508C3.83855 2.2222 3.74841 2.31234 3.74841 2.41887V10.8102C3.74841 10.9086 3.78939 10.9987 3.86314 11.0643L11.1154 17.5053C11.6809 18.0133 12.402 18.2674 13.0903 18.21C13.4017 18.1854 13.6066 18.1035 13.7459 18.0133C13.8115 17.9642 13.8115 17.8658 13.7541 17.8167L11.0663 15.514C10.8286 15.3091 10.7794 14.9485 10.9761 14.7027C11.181 14.4487 11.5497 14.4159 11.7956 14.6289L15.3767 17.7101C15.6962 17.9888 16.1142 18.0953 16.4665 18.0051C16.5813 17.9724 16.7697 17.915 16.8763 17.6692C16.9828 17.4069 16.8927 17.1037 16.6796 16.9152L13.3116 14.1045C13.0658 13.8996 13.033 13.539 13.2378 13.3014C13.4427 13.0556 13.8033 13.0228 14.0491 13.2276L18.6054 17.03C18.9413 17.3086 19.4412 17.2676 19.7362 16.9398C20.0312 16.612 19.9984 16.104 19.6707 15.8008L15.2046 11.7608C14.9669 11.5477 14.9505 11.179 15.1636 10.9413C15.3767 10.7037 15.7372 10.6873 15.9749 10.9004L20.441 14.9403C20.4328 14.9567 20.5393 15.0551 20.7196 15.137Z" fill="#216CFF"/>
<path d="M8.97685 4.50051C8.53434 4.9758 8.54253 5.72971 8.99324 6.19681C9.44395 6.65571 10.1815 6.69668 10.6813 6.28695L13.4348 3.95966C13.6724 3.76299 14.0248 3.78757 14.2296 4.00883C15.2704 5.1315 19.6217 9.84343 21.5803 12.0806C21.6704 12.1789 21.8179 12.1871 21.9081 12.0888C22.0474 11.9495 22.1785 11.7856 22.3096 11.6217C22.5554 11.3185 22.8013 11.0153 23.0963 10.794C23.2028 10.7203 23.2602 10.5892 23.2602 10.458V2.41906C23.2602 2.33711 23.1946 2.27156 23.1127 2.27156C21.99 2.28795 19.8676 2.18961 18.1139 1.38653C15.9751 0.411366 12.8038 0.69818 11.8122 1.62418C11.7303 1.69793 11.6401 1.77988 11.55 1.86182L8.97685 4.50051Z" fill="#216CFF"/>
<path d="M0.798523 0.771759C0.503515 0.771759 0.265869 1.0094 0.265869 1.30441V11.1544C0.265869 11.4494 0.503515 11.6871 0.798523 11.6871H2.0605C2.35551 11.6871 2.59316 11.4494 2.59316 11.1544V1.30441C2.59316 1.0094 2.35551 0.771759 2.0605 0.771759H0.798523Z" fill="#216CFF"/>
<path d="M24.4073 1.30441V11.1544C24.4073 11.4494 24.645 11.6871 24.94 11.6871H26.202C26.497 11.6871 26.7346 11.4494 26.7346 11.1544V1.30441C26.7346 1.0094 26.497 0.771759 26.202 0.771759H24.94C24.645 0.771759 24.4073 1.0094 24.4073 1.30441Z" fill="#216CFF"/>
</svg>
