<svg width="48" height="48" viewBox="0 0 48 48" fill="none" xmlns="http://www.w3.org/2000/svg">
<rect width="48" height="48" rx="6" fill="#2874AF"/>
<path d="M33.4672 21.0472L31.2926 17.2804C31.2602 17.2243 31.2067 17.1833 31.1441 17.1665C31.0814 17.1497 31.0147 17.1585 30.9585 17.1909L26.3975 19.8242V14.6561C26.3975 14.5912 26.3717 14.529 26.3258 14.4831C26.28 14.4373 26.2177 14.4115 26.1529 14.4115H21.8469C21.8148 14.4115 21.783 14.4178 21.7534 14.4301C21.7237 14.4424 21.6968 14.4605 21.6742 14.4832C21.6515 14.5059 21.6336 14.5329 21.6214 14.5626C21.6091 14.5922 21.6029 14.624 21.603 14.6561V19.8242L17.0412 17.1917C17.0135 17.1756 16.9828 17.1652 16.951 17.161C16.9192 17.1569 16.8869 17.159 16.856 17.1673C16.825 17.1756 16.796 17.19 16.7706 17.2095C16.7452 17.229 16.7239 17.2534 16.7079 17.2812L14.5325 21.0472C14.5003 21.1035 14.4916 21.1701 14.5084 21.2327C14.5251 21.2953 14.566 21.3488 14.622 21.3813L19.1629 24.0004L14.622 26.6218C14.566 26.6543 14.5251 26.7078 14.5084 26.7704C14.4916 26.833 14.5003 26.8996 14.5325 26.9559L16.7071 30.7219C16.7396 30.7781 16.793 30.8191 16.8556 30.8359C16.9183 30.8526 16.985 30.8438 17.0412 30.8114L21.603 28.1767V33.344C21.6029 33.3761 21.6091 33.4079 21.6214 33.4376C21.6336 33.4672 21.6515 33.4942 21.6742 33.5169C21.6968 33.5397 21.7237 33.5577 21.7534 33.57C21.783 33.5823 21.8148 33.5886 21.8469 33.5886H26.1529C26.2177 33.5886 26.28 33.5628 26.3258 33.517C26.3717 33.4711 26.3975 33.4089 26.3975 33.344V28.1767L30.9593 30.8107C31.0155 30.8429 31.0822 30.8516 31.1448 30.8348C31.2074 30.818 31.2608 30.7772 31.2934 30.7212L33.4672 26.9544C33.4997 26.8982 33.5085 26.8314 33.4917 26.7688C33.4749 26.7061 33.4339 26.6527 33.3777 26.6203L28.8391 24.0004L33.3777 21.3798C33.4335 21.3474 33.4742 21.2943 33.491 21.232C33.5077 21.1697 33.4992 21.1033 33.4672 21.0472Z" fill="white"/>
</svg>
