<svg width="14" height="15" viewBox="0 0 14 15" fill="none" xmlns="http://www.w3.org/2000/svg">
<path fill-rule="evenodd" clip-rule="evenodd" d="M7.10869 14.3717C10.8157 14.3717 13.8209 11.3665 13.8209 7.65947C13.8209 3.95242 10.8157 0.947266 7.10869 0.947266C3.40164 0.947266 0.396484 3.95242 0.396484 7.65947C0.396484 11.3665 3.40164 14.3717 7.10869 14.3717ZM6.73507 5.28331C6.47761 5.11167 6.14658 5.09567 5.87376 5.24167C5.60095 5.38768 5.43064 5.67199 5.43064 5.98142V9.33753C5.43064 9.64696 5.60095 9.93127 5.87376 10.0773C6.14658 10.2233 6.47761 10.2073 6.73507 10.0356L9.25215 8.35759C9.48557 8.20198 9.62577 7.94 9.62577 7.65947C9.62577 7.37894 9.48557 7.11697 9.25215 6.96136L6.73507 5.28331Z" fill="#2F71F4"/>
<path fill-rule="evenodd" clip-rule="evenodd" d="M7.10869 14.3717C10.8157 14.3717 13.8209 11.3665 13.8209 7.65947C13.8209 3.95242 10.8157 0.947266 7.10869 0.947266C3.40164 0.947266 0.396484 3.95242 0.396484 7.65947C0.396484 11.3665 3.40164 14.3717 7.10869 14.3717ZM6.73507 5.28331C6.47761 5.11167 6.14658 5.09567 5.87376 5.24167C5.60095 5.38768 5.43064 5.67199 5.43064 5.98142V9.33753C5.43064 9.64696 5.60095 9.93127 5.87376 10.0773C6.14658 10.2233 6.47761 10.2073 6.73507 10.0356L9.25215 8.35759C9.48557 8.20198 9.62577 7.94 9.62577 7.65947C9.62577 7.37894 9.48557 7.11697 9.25215 6.96136L6.73507 5.28331Z" fill="url(#paint0_linear_31590_1876)"/>
<defs>
<linearGradient id="paint0_linear_31590_1876" x1="0.396484" y1="7.65947" x2="13.8209" y2="7.65947" gradientUnits="userSpaceOnUse">
<stop stop-color="#9643FF" stop-opacity="0"/>
<stop offset="1" stop-color="#9643FF"/>
</linearGradient>
</defs>
</svg>
