<svg width="14" height="13" viewBox="0 0 14 13" fill="none" xmlns="http://www.w3.org/2000/svg">
<path d="M0 1.67805C0 0.751289 0.751289 0 1.67805 0H7.55123C8.478 0 9.22929 0.751289 9.22929 1.67805V5.03416C9.22929 5.96092 8.478 6.71221 7.55123 6.71221H5.87318L3.3561 9.22929V6.71221H1.67805C0.751289 6.71221 0 5.96092 0 5.03416V1.67805Z" fill="#2F71F4"/>
<path d="M0 1.67805C0 0.751289 0.751289 0 1.67805 0H7.55123C8.478 0 9.22929 0.751289 9.22929 1.67805V5.03416C9.22929 5.96092 8.478 6.71221 7.55123 6.71221H5.87318L3.3561 9.22929V6.71221H1.67805C0.751289 6.71221 0 5.96092 0 5.03416V1.67805Z" fill="url(#paint0_linear_31589_379)"/>
<path d="M10.9073 3.3561V5.03415C10.9073 6.88768 9.40476 8.39026 7.55123 8.39026H6.56825L5.08594 9.87257C5.32071 9.99751 5.58868 10.0683 5.87318 10.0683H7.55123L10.0683 12.5854V10.0683H11.7464C12.6731 10.0683 13.4244 9.31702 13.4244 8.39026V5.03416C13.4244 4.10739 12.6731 3.3561 11.7464 3.3561H10.9073Z" fill="#2F71F4"/>
<path d="M10.9073 3.3561V5.03415C10.9073 6.88768 9.40476 8.39026 7.55123 8.39026H6.56825L5.08594 9.87257C5.32071 9.99751 5.58868 10.0683 5.87318 10.0683H7.55123L10.0683 12.5854V10.0683H11.7464C12.6731 10.0683 13.4244 9.31702 13.4244 8.39026V5.03416C13.4244 4.10739 12.6731 3.3561 11.7464 3.3561H10.9073Z" fill="url(#paint1_linear_31589_379)"/>
<defs>
<linearGradient id="paint0_linear_31589_379" x1="0" y1="6.29269" x2="13.4244" y2="6.29269" gradientUnits="userSpaceOnUse">
<stop stop-color="#9643FF" stop-opacity="0"/>
<stop offset="1" stop-color="#9643FF"/>
</linearGradient>
<linearGradient id="paint1_linear_31589_379" x1="0" y1="6.29269" x2="13.4244" y2="6.29269" gradientUnits="userSpaceOnUse">
<stop stop-color="#9643FF" stop-opacity="0"/>
<stop offset="1" stop-color="#9643FF"/>
</linearGradient>
</defs>
</svg>
