<svg width="14" height="14" viewBox="0 0 14 14" fill="none" xmlns="http://www.w3.org/2000/svg">
<path fill-rule="evenodd" clip-rule="evenodd" d="M1.12614 0.843262C0.662754 0.843262 0.287109 1.21891 0.287109 1.68229C0.287109 2.14567 0.662754 2.52131 1.12614 2.52131V9.23352C1.12614 10.1603 1.87742 10.9116 2.80419 10.9116H4.97373L3.88896 11.9963C3.5613 12.324 3.5613 12.8552 3.88896 13.1829C4.21662 13.5106 4.74786 13.5106 5.07552 13.1829L6.99932 11.2591L8.92311 13.1829C9.25077 13.5106 9.78202 13.5106 10.1097 13.1829C10.4373 12.8552 10.4373 12.324 10.1097 11.9963L9.0249 10.9116H11.1944C12.1212 10.9116 12.8725 10.1603 12.8725 9.23352V2.52131C13.3359 2.52131 13.7115 2.14567 13.7115 1.68229C13.7115 1.21891 13.3359 0.843262 12.8725 0.843262H1.12614ZM10.9487 4.79265C11.2764 4.46499 11.2764 3.93374 10.9487 3.60608C10.621 3.27842 10.0898 3.27842 9.76214 3.60608L6.99932 6.36891L5.91455 5.28414C5.58689 4.95648 5.05564 4.95648 4.72798 5.28414L3.04993 6.96219C2.72227 7.28985 2.72227 7.82109 3.04993 8.14875C3.37759 8.47641 3.90883 8.47641 4.23649 8.14875L5.32126 7.06398L6.40604 8.14875C6.7337 8.47641 7.26494 8.47641 7.5926 8.14875L10.9487 4.79265Z" fill="#2F71F4"/>
<path fill-rule="evenodd" clip-rule="evenodd" d="M1.12614 0.843262C0.662754 0.843262 0.287109 1.21891 0.287109 1.68229C0.287109 2.14567 0.662754 2.52131 1.12614 2.52131V9.23352C1.12614 10.1603 1.87742 10.9116 2.80419 10.9116H4.97373L3.88896 11.9963C3.5613 12.324 3.5613 12.8552 3.88896 13.1829C4.21662 13.5106 4.74786 13.5106 5.07552 13.1829L6.99932 11.2591L8.92311 13.1829C9.25077 13.5106 9.78202 13.5106 10.1097 13.1829C10.4373 12.8552 10.4373 12.324 10.1097 11.9963L9.0249 10.9116H11.1944C12.1212 10.9116 12.8725 10.1603 12.8725 9.23352V2.52131C13.3359 2.52131 13.7115 2.14567 13.7115 1.68229C13.7115 1.21891 13.3359 0.843262 12.8725 0.843262H1.12614ZM10.9487 4.79265C11.2764 4.46499 11.2764 3.93374 10.9487 3.60608C10.621 3.27842 10.0898 3.27842 9.76214 3.60608L6.99932 6.36891L5.91455 5.28414C5.58689 4.95648 5.05564 4.95648 4.72798 5.28414L3.04993 6.96219C2.72227 7.28985 2.72227 7.82109 3.04993 8.14875C3.37759 8.47641 3.90883 8.47641 4.23649 8.14875L5.32126 7.06398L6.40604 8.14875C6.7337 8.47641 7.26494 8.47641 7.5926 8.14875L10.9487 4.79265Z" fill="url(#paint0_linear_29663_130)"/>
<path fill-rule="evenodd" clip-rule="evenodd" d="M1.12614 0.843262C0.662754 0.843262 0.287109 1.21891 0.287109 1.68229C0.287109 2.14567 0.662754 2.52131 1.12614 2.52131V9.23352C1.12614 10.1603 1.87742 10.9116 2.80419 10.9116H4.97373L3.88896 11.9963C3.5613 12.324 3.5613 12.8552 3.88896 13.1829C4.21662 13.5106 4.74786 13.5106 5.07552 13.1829L6.99932 11.2591L8.92311 13.1829C9.25077 13.5106 9.78202 13.5106 10.1097 13.1829C10.4373 12.8552 10.4373 12.324 10.1097 11.9963L9.0249 10.9116H11.1944C12.1212 10.9116 12.8725 10.1603 12.8725 9.23352V2.52131C13.3359 2.52131 13.7115 2.14567 13.7115 1.68229C13.7115 1.21891 13.3359 0.843262 12.8725 0.843262H1.12614ZM10.9487 4.79265C11.2764 4.46499 11.2764 3.93374 10.9487 3.60608C10.621 3.27842 10.0898 3.27842 9.76214 3.60608L6.99932 6.36891L5.91455 5.28414C5.58689 4.95648 5.05564 4.95648 4.72798 5.28414L3.04993 6.96219C2.72227 7.28985 2.72227 7.82109 3.04993 8.14875C3.37759 8.47641 3.90883 8.47641 4.23649 8.14875L5.32126 7.06398L6.40604 8.14875C6.7337 8.47641 7.26494 8.47641 7.5926 8.14875L10.9487 4.79265Z" fill="white" fill-opacity="0.2"/>
<defs>
<linearGradient id="paint0_linear_29663_130" x1="0.287109" y1="7.13596" x2="13.7115" y2="7.13596" gradientUnits="userSpaceOnUse">
<stop stop-color="#9643FF" stop-opacity="0"/>
<stop offset="1" stop-color="#9643FF"/>
</linearGradient>
</defs>
</svg>
