<svg width="29" height="24" viewBox="0 0 29 24" fill="none" xmlns="http://www.w3.org/2000/svg">
<path d="M3.99429 19.6716C4.20309 19.8801 4.48611 19.9973 4.78119 19.9973C5.07628 19.9973 5.35929 19.8801 5.56809 19.6716L12.8158 12.424L16.2179 15.8261C16.4267 16.0347 16.7098 16.1518 17.0048 16.1518C17.2999 16.1518 17.5829 16.0347 17.7917 15.8261L24.7679 8.84908V10C24.7679 10.2952 24.8851 10.5782 25.0938 10.7868C25.3025 10.9955 25.5855 11.1127 25.8806 11.1127C26.1757 11.1127 26.4587 10.9955 26.6674 10.7868C26.8761 10.5782 26.9933 10.2952 26.9933 10V6.16258C26.9933 5.86778 26.8763 5.58503 26.668 5.37641C26.4597 5.16779 26.1772 5.05035 25.8824 5.04988H22.0458C21.7507 5.04988 21.4677 5.16711 21.259 5.37578C21.0503 5.58445 20.9331 5.86747 20.9331 6.16258C20.9331 6.45768 21.0503 6.7407 21.259 6.94938C21.4677 7.15805 21.7507 7.27528 22.0458 7.27528H23.1968L17.0066 13.4663L13.5982 10.0633C13.495 9.95993 13.3724 9.87796 13.2374 9.82203C13.1025 9.76611 12.9578 9.73732 12.8118 9.73732C12.6657 9.73732 12.521 9.76611 12.3861 9.82203C12.2511 9.87796 12.1285 9.95993 12.0253 10.0633L3.99073 18.0978C3.78269 18.3071 3.66621 18.5904 3.66687 18.8855C3.66754 19.1805 3.7853 19.4633 3.99429 19.6716V19.6716Z" fill="white"/>
<path d="M3.78513 9.30662C3.1994 9.30662 2.63593 9.14906 2.23981 8.874C2.08493 8.76718 1.81877 8.54286 1.76892 8.25089C1.75143 8.14848 1.69818 8.0556 1.61863 7.98877C1.53909 7.92194 1.43841 7.88549 1.33452 7.88592H0.544954C0.483645 7.88623 0.423059 7.89919 0.366996 7.924C0.310932 7.94882 0.2606 7.98495 0.219156 8.03013C0.17766 8.07598 0.146176 8.12999 0.126712 8.18869C0.107247 8.24739 0.100229 8.3095 0.106105 8.37106C0.141944 8.72125 0.256682 9.05877 0.441695 9.35825C0.659756 9.70832 0.948736 10.0088 1.29002 10.2404C1.96832 10.7113 2.85402 10.9703 3.78246 10.9703H3.94625V11.5516C3.94648 11.6847 3.99945 11.8122 4.09355 11.9063C4.18766 12.0004 4.31522 12.0534 4.4483 12.0536H5.10879C5.24187 12.0534 5.36943 12.0004 5.46354 11.9063C5.55764 11.8122 5.61061 11.6847 5.61084 11.5516V10.9703H5.77374C6.70485 10.9703 7.59144 10.7113 8.26618 10.2404C8.60776 10.0092 8.8968 9.70859 9.1145 9.35825C9.34077 8.99695 9.46077 8.57927 9.46077 8.15297C9.46077 7.72668 9.34077 7.30899 9.1145 6.9477C8.8967 6.59767 8.60766 6.29741 8.26618 6.06644C7.58877 5.59555 6.70218 5.33562 5.77374 5.33562H5.61351V3.03545C6.10572 3.04936 6.58472 3.19774 6.9986 3.46451C7.15349 3.57133 7.42053 3.79476 7.47038 4.08762C7.48787 4.19003 7.54113 4.28291 7.62067 4.34974C7.70021 4.41657 7.80089 4.45301 7.90478 4.45258H8.69346C8.75491 4.45197 8.81557 4.43864 8.87162 4.41343C8.92766 4.38822 8.97788 4.35168 9.01911 4.30611C9.06033 4.26053 9.09168 4.20691 9.11116 4.14863C9.13064 4.09034 9.13784 4.02865 9.13231 3.96745C9.09712 3.61684 8.98234 3.27889 8.79672 2.97937C8.57892 2.62935 8.28988 2.32909 7.9484 2.09812C7.31015 1.65304 6.48587 1.39845 5.61351 1.37086V0.774451C5.61328 0.641371 5.56031 0.513809 5.46621 0.419707C5.3721 0.325606 5.24454 0.272635 5.11146 0.2724H4.45097C4.31789 0.272635 4.19033 0.325606 4.09622 0.419707C4.00212 0.513809 3.94915 0.641371 3.94892 0.774451V1.36819H3.78513C2.85402 1.36819 1.96832 1.62722 1.29269 2.09812C0.951651 2.32961 0.662712 2.62977 0.444366 2.97937C0.218123 3.34084 0.0981445 3.75866 0.0981445 4.18509C0.0981445 4.61152 0.218123 5.02935 0.444366 5.39081C0.662462 5.74061 0.951447 6.04081 1.29269 6.27207C1.97099 6.74296 2.85669 7.002 3.78513 7.002H3.94892V9.30751L3.78513 9.30662ZM5.61351 9.30662V6.99933H5.77641C6.36303 6.99933 6.9265 7.15777 7.32173 7.43194C7.49976 7.55656 7.80152 7.8156 7.80152 8.15208C7.80152 8.48856 7.50065 8.7476 7.32173 8.87222C6.9265 9.14728 6.36303 9.30484 5.77641 9.30484L5.61351 9.30662ZM3.94892 3.03189V5.33651H3.78513C3.1994 5.33651 2.63593 5.17895 2.23981 4.90389C2.06178 4.78016 1.76091 4.52113 1.76091 4.18465C1.76091 3.84817 2.06089 3.58913 2.23981 3.46451C2.63593 3.18945 3.1994 3.03189 3.78513 3.03189H3.94892Z" fill="white"/>
<path d="M26.9106 21.7145H2.33685V13.3355C2.33685 13.0404 2.21962 12.7574 2.01094 12.5487C1.80227 12.34 1.51925 12.2228 1.22415 12.2228C0.929042 12.2228 0.646023 12.34 0.437352 12.5487C0.22868 12.7574 0.11145 13.0404 0.11145 13.3355V22.8272C0.11145 23.1223 0.22868 23.4054 0.437352 23.614C0.646023 23.8227 0.929042 23.9399 1.22415 23.9399H26.9106C27.2057 23.9399 27.4887 23.8227 27.6973 23.614C27.906 23.4054 28.0233 23.1223 28.0233 22.8272C28.0233 22.5321 27.906 22.2491 27.6973 22.0404C27.4887 21.8318 27.2057 21.7145 26.9106 21.7145V21.7145Z" fill="white"/>
</svg>
