<svg width="24" height="26" viewBox="0 0 24 26" fill="none" xmlns="http://www.w3.org/2000/svg">
<path d="M9.97088 9.75646C9.44049 9.75646 8.92201 9.59917 8.48101 9.30448C8.04001 9.00979 7.69631 8.59094 7.49338 8.1009C7.29044 7.61087 7.23739 7.07166 7.34093 6.55146C7.44446 6.03127 7.69994 5.55347 8.07504 5.17848C8.45015 4.80349 8.92803 4.54817 9.44826 4.4448C9.96848 4.34142 10.5077 4.39465 10.9976 4.59774C11.4876 4.80082 11.9064 5.14465 12.2009 5.58574C12.4955 6.02683 12.6526 6.54536 12.6524 7.07576C12.6515 7.7866 12.3687 8.46805 11.866 8.97061C11.3633 9.47317 10.6817 9.75579 9.97088 9.75646Z" fill="white"/>
<path d="M6.9887 15.0186C6.723 14.8651 6.50244 14.6443 6.34926 14.3784C6.19608 14.1125 6.11568 13.811 6.11617 13.5041V12.5929C6.11617 12.2927 6.1753 11.9955 6.2902 11.7181C6.4051 11.4408 6.5735 11.1889 6.7858 10.9767C6.99809 10.7644 7.25011 10.5961 7.52747 10.4813C7.80483 10.3665 8.10208 10.3075 8.40225 10.3076H11.5398C12.1457 10.3081 12.7266 10.549 13.155 10.9775C13.5833 11.406 13.824 11.987 13.8242 12.5929V13.51C13.8246 13.8168 13.7441 14.1183 13.5909 14.3842C13.4378 14.65 13.2173 14.8709 12.9517 15.0245C12.0447 15.5471 11.0162 15.8216 9.96942 15.8206C8.92267 15.8196 7.89465 15.543 6.9887 15.0186Z" fill="white"/>
<path d="M16.5167 16.9765C16.4631 16.8922 16.4032 16.812 16.3374 16.7367C17.7425 15.4712 18.7348 13.8125 19.1856 11.9761C18.5447 11.9728 17.9108 11.843 17.3202 11.5941C16.9107 13.1994 15.9842 14.6253 14.6837 15.6517C13.3832 16.6781 11.7811 17.2479 10.1245 17.2731C8.46801 17.2984 6.84922 16.7777 5.51804 15.7915C4.18686 14.8052 3.2173 13.4083 2.75903 11.8162C2.30076 10.2241 2.37925 8.52545 2.98239 6.98242C3.58553 5.43939 4.67979 4.13778 6.09625 3.2785C7.51271 2.41922 9.17262 2.05005 10.8198 2.22797C12.4669 2.40589 14.0097 3.12102 15.21 4.26296C15.5787 3.73871 16.0456 3.29096 16.5848 2.94449C15.3795 1.78048 13.8859 0.958454 12.2576 0.562913C10.6293 0.167371 8.92508 0.212581 7.32006 0.693896C5.71503 1.17521 4.26714 2.07527 3.12521 3.30154C1.98327 4.52782 1.1885 6.03608 0.822587 7.67127C0.456672 9.30647 0.532815 11.0096 1.04319 12.6056C1.55357 14.2017 2.47976 15.633 3.72656 16.7525C4.97337 17.8719 6.49581 18.6392 8.13738 18.9754C9.77895 19.3115 11.4804 19.2045 13.0669 18.6652C13.1146 18.7976 13.1766 18.9243 13.252 19.043L16.7018 24.4995C16.8278 24.7329 17.0005 24.9378 17.2091 25.1017C17.4177 25.2655 17.6577 25.3847 17.9143 25.4519C18.1709 25.5191 18.4386 25.5328 18.7007 25.4922C18.9628 25.4516 19.2138 25.3576 19.438 25.2159C19.6623 25.0743 19.855 24.888 20.0043 24.6688C20.1535 24.4495 20.2561 24.2019 20.3056 23.9413C20.3552 23.6807 20.3506 23.4128 20.2923 23.154C20.2339 22.8953 20.123 22.6513 19.9664 22.4372L16.5167 16.9765Z" fill="white"/>
<path d="M19.2221 3.26764C18.4689 3.26764 17.7326 3.49098 17.1064 3.90943C16.4801 4.32788 15.992 4.92264 15.7038 5.61849C15.4155 6.31434 15.3401 7.08004 15.4871 7.81876C15.634 8.55747 15.9967 9.23602 16.5293 9.76861C17.0619 10.3012 17.7404 10.6639 18.4791 10.8108C19.2178 10.9578 19.9835 10.8823 20.6794 10.5941C21.3752 10.3059 21.97 9.81778 22.3884 9.19153C22.8069 8.56528 23.0302 7.829 23.0302 7.07582C23.0303 6.57569 22.9319 6.08044 22.7406 5.61836C22.5492 5.15628 22.2687 4.73643 21.9151 4.38278C21.5614 4.02914 21.1416 3.74863 20.6795 3.55729C20.2174 3.36595 19.7222 3.26753 19.2221 3.26764ZM21.127 4.52974L19.1346 9.99127C19.124 10.0203 19.1061 10.0462 19.0827 10.0663C19.0593 10.0865 19.0311 10.1004 19.0008 10.1065C18.989 10.1074 18.9772 10.1074 18.9654 10.1065C18.9404 10.1066 18.9156 10.1013 18.8927 10.0912C18.8698 10.081 18.8493 10.0662 18.8325 10.0476L16.6617 7.67826C16.6324 7.647 16.6152 7.60633 16.6132 7.56354C16.6112 7.52074 16.6245 7.47864 16.6508 7.44479C16.677 7.41094 16.7145 7.38755 16.7564 7.37884C16.7984 7.37012 16.842 7.37664 16.8796 7.39723L18.6264 8.33203L20.7988 4.37745C20.8211 4.33813 20.8573 4.30857 20.9003 4.29459C20.9432 4.2806 20.9899 4.2832 21.031 4.30187C21.0722 4.32055 21.1048 4.35394 21.1226 4.39549C21.1403 4.43704 21.1419 4.48373 21.127 4.52637V4.52974Z" fill="white"/>
</svg>
