<svg width="24" height="20" viewBox="0 0 24 20" fill="none" xmlns="http://www.w3.org/2000/svg">
<path d="M10.595 4.84668C10.595 6.98125 8.86455 8.71166 6.72997 8.71166C4.5954 8.71166 2.86499 6.98125 2.86499 4.84668C2.86499 2.7121 4.5954 0.981689 6.72997 0.981689C8.86455 0.981689 10.595 2.7121 10.595 4.84668Z" fill="#216CFF"/>
<path d="M20.9016 4.84668C20.9016 6.98125 19.1712 8.71166 17.0366 8.71166C14.902 8.71166 13.1716 6.98125 13.1716 4.84668C13.1716 2.7121 14.902 0.981689 17.0366 0.981689C19.1712 0.981689 20.9016 2.7121 20.9016 4.84668Z" fill="#216CFF"/>
<path d="M15.657 19.0183C15.7172 18.5975 15.7483 18.1674 15.7483 17.73C15.7483 15.6233 15.026 13.6854 13.8155 12.1503C14.763 11.6021 15.8632 11.2883 17.0366 11.2883C20.5943 11.2883 23.4783 14.1723 23.4783 17.73V19.0183H15.657Z" fill="#216CFF"/>
<path d="M6.72997 11.2883C10.2876 11.2883 13.1716 14.1723 13.1716 17.73V19.0183H0.28833V17.73C0.28833 14.1723 3.17235 11.2883 6.72997 11.2883Z" fill="#216CFF"/>
</svg>
