<svg width="22" height="28" viewBox="0 0 22 28" fill="none" xmlns="http://www.w3.org/2000/svg">
<path d="M9.1564 0.616089C8.70062 0.616089 8.32372 0.992989 8.32372 1.44878V7.97003C8.32372 9.11826 7.38585 10.0561 6.23762 10.0561H4.20411C3.05588 10.0561 2.11801 9.11826 2.11801 7.97003V1.44878C2.11801 0.992989 1.74111 0.616089 1.28532 0.616089C0.829537 0.616089 0.452637 0.992989 0.452637 1.44878V7.97003C0.452637 9.60034 1.49569 10.9852 2.94193 11.5024V25.1497C2.94193 26.4118 3.96745 27.4286 5.22086 27.4286C6.47428 27.4286 7.49979 26.4031 7.49979 25.1497V11.5111C8.94604 10.994 9.98909 9.60034 9.98909 7.97879V1.45754C9.98909 0.992989 9.61219 0.616089 9.1564 0.616089Z" fill="#216CFF"/>
<path d="M3.91484 8.41702C4.37063 8.41702 4.74753 8.04012 4.74753 7.58433V1.43999C4.74753 0.9842 4.37063 0.6073 3.91484 0.6073C3.45905 0.6073 3.08215 0.9842 3.08215 1.43999V7.58433C3.08215 8.04889 3.45905 8.41702 3.91484 8.41702Z" fill="#216CFF"/>
<path d="M6.58818 8.41702C7.04396 8.41702 7.42086 8.04012 7.42086 7.58433V1.43999C7.42086 0.9842 7.04396 0.6073 6.58818 0.6073C6.13239 0.6073 5.75549 0.9842 5.75549 1.43999V7.58433C5.75549 8.04889 6.12363 8.41702 6.58818 8.41702Z" fill="#216CFF"/>
<path d="M17.5532 0.571411H14.6783C14.2225 0.571411 13.8456 0.948312 13.8456 1.4041V25.1488C13.8456 26.411 14.8711 27.4278 16.1245 27.4278C17.3779 27.4278 18.4034 26.4022 18.4034 25.1488V17.0323H20.472C20.9278 17.0323 21.3047 16.6554 21.3047 16.1996V4.32288C21.3135 2.25431 19.6218 0.571411 17.5532 0.571411Z" fill="#216CFF"/>
</svg>
