<svg width="12" height="14" viewBox="0 0 12 14" fill="none" xmlns="http://www.w3.org/2000/svg">
<path fill-rule="evenodd" clip-rule="evenodd" d="M0.0175781 2.46437C0.0175781 1.53761 0.768868 0.786316 1.69563 0.786316H10.0859C11.0127 0.786316 11.7639 1.53761 11.7639 2.46437V9.17658C11.7639 10.1033 11.0127 10.8546 10.0859 10.8546H8.22393L8.32645 11.2647L9.00114 11.9394C9.2411 12.1794 9.31289 12.5402 9.18302 12.8538C9.05316 13.1673 8.74722 13.3717 8.40786 13.3717H3.37371C3.03435 13.3717 2.72841 13.1673 2.59855 12.8538C2.46868 12.5402 2.54047 12.1794 2.78043 11.9394L3.45512 11.2647L3.55764 10.8546H1.69563C0.768867 10.8546 0.0175781 10.1033 0.0175781 9.17658V2.46437ZM4.85985 8.33755C4.84749 8.33728 4.83517 8.33728 4.82289 8.33755H1.69563V2.46437H10.0859V8.33755H6.95868C6.9464 8.33728 6.93408 8.33728 6.92172 8.33755H4.85985Z" fill="white" fill-opacity="0.75"/>
</svg>
