<svg width="15" height="13" viewBox="0 0 15 13" fill="none" xmlns="http://www.w3.org/2000/svg">
<path fill-rule="evenodd" clip-rule="evenodd" d="M7.85548 0.655901C8.18314 0.328241 8.71438 0.328241 9.04204 0.655901L14.0762 5.69006C14.4039 6.01772 14.4039 6.54896 14.0762 6.87662L9.04204 11.9108C8.71438 12.2384 8.18314 12.2384 7.85548 11.9108C7.52782 11.5831 7.52782 11.0519 7.85548 10.7242L11.4573 7.12236L1.73655 7.12236C1.27317 7.12236 0.897522 6.74672 0.897522 6.28334C0.897522 5.81996 1.27317 5.44431 1.73655 5.44431H11.4573L7.85548 1.84246C7.52782 1.5148 7.52782 0.983561 7.85548 0.655901Z" fill="#2F71F4"/>
<path fill-rule="evenodd" clip-rule="evenodd" d="M7.85548 0.655901C8.18314 0.328241 8.71438 0.328241 9.04204 0.655901L14.0762 5.69006C14.4039 6.01772 14.4039 6.54896 14.0762 6.87662L9.04204 11.9108C8.71438 12.2384 8.18314 12.2384 7.85548 11.9108C7.52782 11.5831 7.52782 11.0519 7.85548 10.7242L11.4573 7.12236L1.73655 7.12236C1.27317 7.12236 0.897522 6.74672 0.897522 6.28334C0.897522 5.81996 1.27317 5.44431 1.73655 5.44431H11.4573L7.85548 1.84246C7.52782 1.5148 7.52782 0.983561 7.85548 0.655901Z" fill="url(#paint0_linear_29389_176)"/>
<defs>
<linearGradient id="paint0_linear_29389_176" x1="0.897522" y1="6.28334" x2="14.3219" y2="6.28334" gradientUnits="userSpaceOnUse">
<stop stop-color="#9643FF" stop-opacity="0"/>
<stop offset="1" stop-color="#9643FF"/>
</linearGradient>
</defs>
</svg>
