<svg width="53" height="45" viewBox="0 0 53 45" fill="none" xmlns="http://www.w3.org/2000/svg">
<path fill-rule="evenodd" clip-rule="evenodd" d="M20.72 12.7201C19.6994 12.4019 18.6683 12.2007 17.6452 12.1757H17.635H17.6249C16.6014 12.2004 15.5706 12.4019 14.55 12.7201C13.1029 13.1713 12.0392 13.9578 11.3788 15.103C10.8587 16.0051 10.9555 17.2207 11.8518 17.5041C13.7618 18.1079 15.7131 18.4257 17.6252 18.4435H17.6354H17.6455C19.5577 18.4257 21.509 18.1079 23.4189 17.5041C24.3152 17.2207 24.412 16.0051 23.8919 15.103C23.2316 13.9578 22.1675 13.1713 20.7207 12.7201H20.72Z" fill="white"/>
<path d="M18.3699 11.6606C20.0648 11.2606 21.1144 9.5624 20.7144 7.86756C20.3144 6.17272 18.6162 5.12306 16.9213 5.52308C15.2265 5.9231 14.1768 7.62132 14.5768 9.31616C14.9769 11.011 16.6751 12.0607 18.3699 11.6606Z" fill="white"/>
<path fill-rule="evenodd" clip-rule="evenodd" d="M50.37 16.079C48.6687 14.3778 46.4068 13.4409 44.0007 13.4409C41.5946 13.4409 39.3327 14.3778 37.6314 16.079C36.9385 16.772 36.3727 17.5577 35.9451 18.4083L28.8695 15.5887C29.2424 14.4398 29.4446 13.214 29.4446 11.9408C29.4446 10.8724 29.3018 9.8377 29.0358 8.85335L34.2381 7.07276C34.8513 8.06399 35.948 8.72433 37.1991 8.72433C39.1207 8.72433 40.6784 7.16662 40.6784 5.24505C40.6784 3.32347 39.1207 1.76577 37.1991 1.76577C35.2775 1.76577 33.7198 3.32347 33.7198 5.24505C33.7198 5.37008 33.7267 5.49331 33.7394 5.61472L28.5375 7.39495C27.9391 5.96192 27.0671 4.67133 25.9856 3.59021C23.8488 1.45336 20.8965 0.131592 17.6354 0.131592C14.3743 0.131592 11.422 1.45336 9.2851 3.59058C7.14824 5.7278 5.82611 8.68011 5.82611 11.9408C5.82611 15.2016 7.14788 18.1543 9.2851 20.2911C9.62687 20.6329 9.98965 20.9536 10.3713 21.2515L5.41766 28.5352C5.0237 28.3804 4.59496 28.2956 4.14627 28.2956C2.2247 28.2956 0.666992 29.8533 0.666992 31.7749C0.666992 33.6965 2.2247 35.2542 4.14627 35.2542C6.06785 35.2542 7.62555 33.6965 7.62555 31.7749C7.62555 30.8583 7.27074 30.0244 6.69122 29.4029L11.6452 22.1192C13.4015 23.1554 15.4492 23.7505 17.6357 23.7505C18.4226 23.7505 19.1909 23.6729 19.9346 23.5261L20.9954 27.4958C19.7668 27.939 18.6404 28.6508 17.689 29.6022C15.9878 31.3034 15.0509 33.5653 15.0509 35.9714C15.0509 38.3776 15.9878 40.6395 17.689 42.3407C19.3902 44.0419 21.6525 44.9788 24.0583 44.9788C26.464 44.9788 28.7263 44.0419 30.4275 42.3407C32.1287 40.6395 33.0656 38.3776 33.0656 35.9714C33.0656 34.405 32.668 32.8999 31.9214 31.5705L37.0048 28.1239C37.2005 28.3641 37.4093 28.5961 37.6314 28.8183C39.3327 30.5195 41.5946 31.4564 44.0007 31.4564C46.4068 31.4564 48.6684 30.5195 50.37 28.8183C52.0712 27.117 53.0081 24.8551 53.0081 22.449C53.0081 20.0429 52.0712 17.781 50.37 16.0797V16.079ZM17.6354 22.2091C14.7998 22.2091 12.2327 21.0598 10.3745 19.2017C8.51639 17.3435 7.36714 14.7765 7.36714 11.9408C7.36714 9.10524 8.51639 6.53818 10.3745 4.68003C12.2327 2.82187 14.7998 1.67262 17.6354 1.67262C20.471 1.67262 23.038 2.82187 24.8962 4.68003C26.7543 6.53818 27.9036 9.10524 27.9036 11.9408C27.9036 14.7765 26.7543 17.3435 24.8962 19.2017C23.038 21.0598 20.471 22.2091 17.6354 22.2091ZM29.3377 41.2502C27.9275 42.6604 26.0523 43.437 24.0583 43.437C22.0642 43.437 20.189 42.6604 18.7788 41.2502C17.3686 39.84 16.5919 37.9648 16.5919 35.9707C16.5919 33.9767 17.3686 32.1015 18.7788 30.6913C20.189 29.2811 22.0642 28.5044 24.0583 28.5044C26.0523 28.5044 27.9275 29.2811 29.3377 30.6913C30.7479 32.1015 31.5246 33.9763 31.5246 35.9707C31.5246 37.9651 30.7479 39.84 29.3377 41.2502ZM31.0542 30.2959C30.8585 30.0556 30.6497 29.8236 30.4275 29.6015C28.7263 27.9002 26.4644 26.9634 24.0583 26.9634C23.5251 26.9634 22.9993 27.0098 22.4846 27.0996L21.4234 23.1296C23.1609 22.5414 24.7168 21.5603 25.9856 20.2915C26.9308 19.3459 27.7166 18.2409 28.299 17.0202L35.375 19.8403C35.1238 20.6753 34.9934 21.552 34.9934 22.4486C34.9934 24.015 35.3909 25.5202 36.1375 26.8496L31.0542 30.2962V30.2959ZM49.2802 27.7277C47.87 29.1379 45.9948 29.9146 44.0007 29.9146C42.0066 29.9146 40.1315 29.1379 38.7213 27.7277C37.3111 26.3175 36.5344 24.4423 36.5344 22.4483C36.5344 20.4542 37.3111 18.579 38.7213 17.1688C40.1315 15.7586 42.0063 14.982 44.0007 14.982C45.9951 14.982 47.87 15.7586 49.2802 17.1688C50.6903 18.579 51.467 20.4542 51.467 22.4483C51.467 24.4423 50.6903 26.3175 49.2802 27.7277Z" fill="white"/>
<path fill-rule="evenodd" clip-rule="evenodd" d="M46.4073 22.5836C45.611 22.3354 44.8072 22.1784 44.0087 22.1592H44.0008H43.9928C43.1947 22.1784 42.3905 22.3354 41.5943 22.5836C40.4657 22.9356 39.6357 23.5488 39.1207 24.4422C38.7152 25.1456 38.7905 26.0941 39.4897 26.3152C40.9796 26.7863 42.5014 27.0342 43.9928 27.048H44.0008H44.0087C45.5005 27.0342 47.0223 26.786 48.5119 26.3152C49.211 26.0941 49.2864 25.146 48.8808 24.4422C48.3658 23.5488 47.5359 22.9352 46.4073 22.5836Z" fill="white"/>
<path d="M44.4183 21.7875C45.7577 21.5612 46.6599 20.292 46.4337 18.9527C46.2074 17.6134 44.9382 16.7111 43.5989 16.9374C42.2596 17.1637 41.3573 18.4328 41.5836 19.7722C41.8098 21.1115 43.079 22.0138 44.4183 21.7875Z" fill="white"/>
<path fill-rule="evenodd" clip-rule="evenodd" d="M26.4649 36.106C25.6686 35.8577 24.8648 35.7008 24.0663 35.6816H24.0584H24.0504C23.2523 35.7008 22.4481 35.8577 21.6519 36.106C20.5233 36.4579 19.6933 37.0715 19.1783 37.9645C18.7728 38.668 18.8482 39.6164 19.5473 39.8371C21.0372 40.3083 22.559 40.5562 24.0504 40.57H24.0584H24.0663C25.5581 40.5562 27.0796 40.3079 28.5695 39.8371C29.2686 39.6161 29.344 38.668 28.9384 37.9645C28.4234 37.0711 27.5935 36.4575 26.4649 36.106Z" fill="white"/>
<path d="M25.8051 34.6241C26.7656 33.6636 26.7656 32.1064 25.8051 31.1459C24.8446 30.1855 23.2874 30.1855 22.327 31.1459C21.3665 32.1064 21.3665 33.6636 22.327 34.6241C23.2874 35.5845 24.8446 35.5845 25.8051 34.6241Z" fill="white"/>
</svg>
