<svg width="19" height="23" viewBox="0 0 19 23" fill="none" xmlns="http://www.w3.org/2000/svg">
<path d="M16.1182 8.84872L14.3588 5.27018C14.2619 4.72594 14.068 4.21152 13.8071 3.74184L14.9552 0.886458C15.1267 0.454051 14.8136 -0.00817871 14.3513 -0.00817871H4.73398C4.27175 -0.00817871 3.95118 0.461506 4.1301 0.886458L5.27822 3.74184C5.01728 4.21152 4.82345 4.72594 4.72653 5.27018L2.96707 8.84872C2.78069 9.22894 3.05654 9.67626 3.48149 9.67626H6.13558C7.01531 10.5262 8.21561 11.0555 9.54265 11.0555C10.8622 11.0555 12.0625 10.5262 12.9497 9.67626H15.6038C16.0288 9.67626 16.3046 9.22894 16.1182 8.84872ZM10.6833 2.75028H10.1316V3.30198C10.1316 3.63001 9.86323 3.8984 9.5352 3.8984C9.20717 3.8984 8.93878 3.63001 8.93878 3.30198V2.75028H8.38708C8.05905 2.75028 7.79066 2.48189 7.79066 2.15386C7.79066 1.82583 8.05905 1.55744 8.38708 1.55744H8.93878V1.00574C8.93878 0.677709 9.20717 0.409318 9.5352 0.409318C9.86323 0.409318 10.1316 0.677709 10.1316 1.00574V1.55744H10.6833C11.0113 1.55744 11.2797 1.82583 11.2797 2.15386C11.2797 2.48189 11.0188 2.75028 10.6833 2.75028Z" fill="white"/>
<path d="M11.9284 12.3751H7.63415C7.47013 12.3751 7.36575 12.554 7.45522 12.6956L9.60234 16.0729C9.68435 16.1996 9.87074 16.1996 9.95274 16.0729L12.0999 12.6956C12.1968 12.554 12.0924 12.3751 11.9284 12.3751Z" fill="white"/>
<path d="M17.5497 22.8871C18.0343 22.8871 18.4295 22.492 18.4295 22.0074V17.3404C18.4295 14.895 16.6476 12.8523 14.3067 12.4497C14.1054 12.4124 13.9115 12.5019 13.7997 12.6733L10.5492 17.8473C10.5045 17.9144 10.4821 17.989 10.4821 18.071V19.1222C10.4821 19.6739 10.9294 20.1212 11.4811 20.1212H12.674C13.2629 20.1212 13.7401 19.644 13.7401 19.0551V18.071C13.3002 17.81 13.0169 17.318 13.0616 16.7588C13.1138 16.1028 13.6357 15.566 14.2918 15.4914C15.1268 15.402 15.8425 16.0506 15.8425 16.8707C15.8425 17.3776 15.5666 17.825 15.164 18.0635V19.0476C15.164 20.4194 14.0532 21.5302 12.6814 21.5302H11.4886C10.1541 21.5302 9.07305 20.4492 9.07305 19.1147V18.0635C9.07305 17.9815 9.05069 17.907 9.00596 17.8399L5.72562 12.6137C5.6287 12.4571 5.44978 12.3751 5.27085 12.39C2.69131 12.5615 0.64856 14.7161 0.64856 17.3404V22.0074C0.64856 22.492 1.04369 22.8871 1.52829 22.8871H17.5497Z" fill="white"/>
</svg>
