<svg width="23" height="30" viewBox="0 0 23 30" fill="none" xmlns="http://www.w3.org/2000/svg">
<path fill-rule="evenodd" clip-rule="evenodd" d="M13.2988 0.3592C13.9649 0.569152 14.4178 1.18683 14.4178 1.88518V9.88518L20.8178 9.88518C21.4144 9.88518 21.9615 10.2171 22.237 10.7463C22.5125 11.2755 22.4707 11.914 22.1286 12.4027L10.9286 28.4027C10.5281 28.9748 9.80285 29.2211 9.13681 29.0112C8.47076 28.8012 8.01783 28.1835 8.01783 27.4852L8.01783 19.4852H1.61783C1.02123 19.4852 0.474178 19.1533 0.198661 18.6241C-0.0768554 18.0949 -0.0350722 17.4564 0.307056 16.9676L11.5071 0.967641C11.9075 0.395528 12.6328 0.149248 13.2988 0.3592Z" fill="#2874AF"/>
</svg>
