<svg width="22" height="23" viewBox="0 0 22 23" fill="none" xmlns="http://www.w3.org/2000/svg">
<path fill-rule="evenodd" clip-rule="evenodd" d="M0.217896 3.48962C0.217896 1.83277 1.56104 0.489624 3.2179 0.489624H18.2179C19.8747 0.489624 21.2179 1.83277 21.2179 3.48962V15.4896C21.2179 17.1465 19.8747 18.4896 18.2179 18.4896H14.8891L15.0724 19.2227L16.2786 20.429C16.7076 20.858 16.8359 21.5031 16.6038 22.0636C16.3716 22.6241 15.8246 22.9896 15.2179 22.9896H6.21794C5.61125 22.9896 5.06429 22.6241 4.83212 22.0636C4.59995 21.5031 4.72828 20.858 5.15728 20.429L6.36349 19.2227L6.54677 18.4896H3.2179C1.56104 18.4896 0.217896 17.1465 0.217896 15.4896V3.48962ZM8.87484 13.9896C8.85276 13.9891 8.83073 13.9891 8.80878 13.9896H3.2179V3.48962H18.2179V13.9896H12.6271C12.6051 13.9891 12.5831 13.9891 12.561 13.9896H8.87484Z" fill="#2874AF"/>
</svg>
