<svg width="26" height="24" viewBox="0 0 26 24" fill="none" xmlns="http://www.w3.org/2000/svg">
<path d="M9.85122 10.3897C12.5022 10.3897 14.6512 8.24064 14.6512 5.58967C14.6512 2.93871 12.5022 0.789673 9.85122 0.789673C7.20025 0.789673 5.05122 2.93871 5.05122 5.58967C5.05122 8.24064 7.20025 10.3897 9.85122 10.3897Z" fill="#2874AF"/>
<path d="M9.85122 13.5897C15.1532 13.5897 19.4512 17.8877 19.4512 23.1897H0.251221C0.251221 17.8877 4.54929 13.5897 9.85122 13.5897Z" fill="#2874AF"/>
<path d="M22.6512 7.18967C22.6512 6.30602 21.9349 5.58967 21.0512 5.58967C20.1676 5.58967 19.4512 6.30602 19.4512 7.18967V8.78967H17.8512C16.9676 8.78967 16.2512 9.50602 16.2512 10.3897C16.2512 11.2733 16.9676 11.9897 17.8512 11.9897H19.4512V13.5897C19.4512 14.4733 20.1676 15.1897 21.0512 15.1897C21.9349 15.1897 22.6512 14.4733 22.6512 13.5897V11.9897H24.2512C25.1349 11.9897 25.8512 11.2733 25.8512 10.3897C25.8512 9.50602 25.1349 8.78967 24.2512 8.78967H22.6512V7.18967Z" fill="#2874AF"/>
</svg>
