<svg width="48" height="48" viewBox="0 0 48 48" fill="none" xmlns="http://www.w3.org/2000/svg">
<rect width="48" height="48" rx="6" fill="#2874AF"/>
<path fill-rule="evenodd" clip-rule="evenodd" d="M34.5 24C34.5 29.799 29.799 34.5 24 34.5C18.201 34.5 13.5 29.799 13.5 24C13.5 18.201 18.201 13.5 24 13.5C29.799 13.5 34.5 18.201 34.5 24ZM16.7349 24.5627C16.7349 28.3515 19.9952 31.4341 24.0019 31.4341C28.0071 31.4341 31.2666 28.3515 31.2689 24.5627C31.2689 24.3311 31.1769 24.109 31.0132 23.9453C30.8494 23.7815 30.6273 23.6895 30.3958 23.6895C30.1642 23.6895 29.9421 23.7815 29.7783 23.9453C29.6146 24.109 29.5226 24.3311 29.5226 24.5627C29.5226 27.3887 27.0458 29.6878 24.0019 29.6878C20.958 29.6878 18.4812 27.3887 18.4812 24.5627C18.4812 24.3311 18.3892 24.109 18.2255 23.9453C18.0617 23.7815 17.8396 23.6895 17.6081 23.6895C17.3765 23.6895 17.1544 23.7815 16.9906 23.9453C16.8269 24.109 16.7349 24.3311 16.7349 24.5627ZM27.0171 23.5703C26.7855 23.5703 26.5634 23.4783 26.3996 23.3146C26.2359 23.1508 26.1439 22.9287 26.1439 22.6971V18.8803C26.1439 18.6487 26.2359 18.4266 26.3996 18.2629C26.5634 18.0991 26.7855 18.0071 27.0171 18.0071C27.2486 18.0071 27.4707 18.0991 27.6345 18.2629C27.7982 18.4266 27.8902 18.6487 27.8902 18.8803V22.6949C27.8905 22.8098 27.8681 22.9236 27.8244 23.0298C27.7806 23.136 27.7164 23.2325 27.6353 23.3138C27.5542 23.3951 27.4578 23.4596 27.3518 23.5036C27.2457 23.5477 27.1319 23.5703 27.0171 23.5703ZM20.3649 23.3146C20.5287 23.4783 20.7508 23.5703 20.9824 23.5703C21.0972 23.5703 21.2109 23.5477 21.317 23.5036C21.4231 23.4596 21.5194 23.3951 21.6005 23.3138C21.6816 23.2325 21.7459 23.136 21.7897 23.0298C21.8334 22.9236 21.8558 22.8098 21.8555 22.6949V18.8803C21.8555 18.6487 21.7635 18.4266 21.5997 18.2629C21.436 18.0991 21.2139 18.0071 20.9824 18.0071C20.7508 18.0071 20.5287 18.0991 20.3649 18.2629C20.2012 18.4266 20.1092 18.6487 20.1092 18.8803V22.6971C20.1092 22.9287 20.2012 23.1508 20.3649 23.3146Z" fill="white"/>
</svg>
