<svg width="24" height="26" viewBox="0 0 24 26" fill="none" xmlns="http://www.w3.org/2000/svg">
<path d="M22.8728 5.82783H18.4062L20.0812 1.24364C20.1889 0.949779 20.0518 0.636331 19.7677 0.508992C19.4837 0.381653 19.1604 0.4894 19.0135 0.763668L16.2316 5.82783H1.12733C0.617974 5.82783 0.196777 6.24903 0.196777 6.75838V21.0595C0.196777 21.5688 0.617974 21.99 1.12733 21.99H9.80593V24.1254H7.72934C7.21998 24.1254 6.79879 24.5466 6.79879 25.056C6.79879 25.5653 7.21998 25.9865 7.72934 25.9865H16.7508C17.2601 25.9865 17.6813 25.5653 17.6813 25.056C17.6813 24.5466 17.2601 24.1254 16.7508 24.1254H14.586V21.99H22.8728C23.3822 21.99 23.8034 21.5688 23.8034 21.0595V6.75838C23.8034 6.23923 23.3822 5.82783 22.8728 5.82783ZM12.7249 24.1254H11.6768V21.99H12.7249V24.1254ZM21.9423 20.1289H2.05788V7.68893H15.2031L11.9315 13.6445L6.24046 10.5981C5.98578 10.461 5.67233 10.5296 5.49602 10.7549C5.3197 10.9801 5.3295 11.3034 5.5254 11.5091L12.5976 19.2278C12.7053 19.3551 12.8719 19.4139 13.0286 19.4139C13.0678 19.4139 13.1069 19.4139 13.1461 19.4041C13.3518 19.3649 13.5183 19.218 13.5869 19.0319L17.7303 7.67914H21.9423V20.1289Z" fill="#216CFF"/>
</svg>
