<svg width="17" height="15" viewBox="0 0 17 15" fill="none" xmlns="http://www.w3.org/2000/svg">
<path d="M5.26196 8V7.5H4.76196H2.76196C1.93354 7.5 1.26196 6.82843 1.26196 6V2C1.26196 1.17157 1.93354 0.5 2.76196 0.5H9.76196C10.5904 0.5 11.262 1.17157 11.262 2V6C11.262 6.82843 10.5904 7.5 9.76196 7.5H7.76196H7.55486L7.40841 7.64645L5.26196 9.79289V8ZM10.1155 11.6464L9.96907 11.5H9.76196H7.7975L8.7975 10.5H9.76196C12.2472 10.5 14.262 8.48528 14.262 6V4.5H14.762C15.5904 4.5 16.262 5.17157 16.262 6V10C16.262 10.8284 15.5904 11.5 14.762 11.5H12.762H12.262V12V13.7929L10.1155 11.6464Z" fill="white" stroke="white"/>
</svg>
