<svg width="25" height="25" viewBox="0 0 25 25" fill="none" xmlns="http://www.w3.org/2000/svg">
<path d="M11.4335 1.61226C11.7328 0.690952 13.0362 0.690951 13.3356 1.61226L15.5277 8.35897C15.6616 8.771 16.0455 9.04996 16.4788 9.04996H23.5727C24.5414 9.04996 24.9442 10.2896 24.1605 10.859L18.4214 15.0287C18.0709 15.2833 17.9242 15.7347 18.0581 16.1467L20.2502 22.8934C20.5496 23.8147 19.4951 24.5809 18.7114 24.0114L12.9723 19.8418C12.6218 19.5871 12.1472 19.5871 11.7967 19.8418L6.05764 24.0114C5.27393 24.5808 4.21945 23.8147 4.5188 22.8934L6.71094 16.1467C6.84481 15.7347 6.69815 15.2833 6.34767 15.0287L0.608572 10.859C-0.175141 10.2896 0.227633 9.04996 1.19636 9.04996H8.29027C8.72349 9.04996 9.10745 8.771 9.24133 8.35897L11.4335 1.61226Z" fill="#2874AF"/>
</svg>
