<svg width="27" height="27" viewBox="0 0 27 27" fill="none" xmlns="http://www.w3.org/2000/svg">
<path d="M14.348 1.01458C13.9455 0.842088 13.4899 0.842088 13.0875 1.01458L1.88745 5.81458C1.29916 6.0667 0.917725 6.64517 0.917725 7.28521C0.917725 7.92526 1.29916 8.50372 1.88745 8.75584L6.11832 10.5691C6.27217 10.3948 6.46503 10.2528 6.68745 10.1575L13.0875 7.4146C13.8997 7.06651 14.8403 7.44275 15.1884 8.25496C15.5364 9.06717 15.1602 10.0078 14.348 10.3559L9.98441 12.226L13.0875 13.5558C13.4899 13.7283 13.9455 13.7283 14.348 13.5558L25.548 8.75584C26.1363 8.50372 26.5177 7.92526 26.5177 7.28521C26.5177 6.64517 26.1363 6.0667 25.548 5.81458L14.348 1.01458Z" fill="#2874AF"/>
<path d="M3.0138 12.72L5.71772 13.8788V20.4414C5.16929 20.3171 4.60901 20.224 4.03886 20.1642C3.28722 20.0854 2.69324 19.4914 2.61443 18.7398C2.55046 18.1297 2.51772 17.5109 2.51772 16.8849C2.51772 15.4505 2.68958 14.0556 3.0138 12.72Z" fill="#2874AF"/>
<path d="M12.5977 24.2012C11.5211 23.1458 10.2804 22.2586 8.91772 21.5814V15.2502L11.8269 16.497C13.0343 17.0145 14.4011 17.0145 15.6085 16.497L24.4217 12.72C24.7459 14.0556 24.9177 15.4505 24.9177 16.8849C24.9177 17.5109 24.885 18.1297 24.821 18.7398C24.7422 19.4914 24.1482 20.0854 23.3966 20.1642C20.0801 20.5119 17.0975 21.9859 14.8378 24.2012C14.2156 24.8111 13.2198 24.8111 12.5977 24.2012Z" fill="#2874AF"/>
<path d="M7.31772 26.4852C8.20138 26.4852 8.91772 25.7688 8.91772 24.8852V21.5814C7.9119 21.0815 6.8396 20.6959 5.71772 20.4414V24.8852C5.71772 25.7688 6.43407 26.4852 7.31772 26.4852Z" fill="#2874AF"/>
</svg>
