<svg width="20" height="20" viewBox="0 0 20 20" fill="none" xmlns="http://www.w3.org/2000/svg">
<path fill-rule="evenodd" clip-rule="evenodd" d="M19.5703 10.1958C19.5703 15.4425 15.317 19.6958 10.0703 19.6958C4.82361 19.6958 0.570312 15.4425 0.570312 10.1958C0.570312 4.9491 4.82361 0.695801 10.0703 0.695801C15.317 0.695801 19.5703 4.9491 19.5703 10.1958ZM12.4453 6.6333C12.4453 7.94498 11.382 9.0083 10.0703 9.0083C8.75864 9.0083 7.69531 7.94498 7.69531 6.6333C7.69531 5.32162 8.75864 4.2583 10.0703 4.2583C11.382 4.2583 12.4453 5.32162 12.4453 6.6333ZM10.0702 11.3833C7.6744 11.3833 5.61 12.8023 4.67162 14.8457C5.97822 16.3613 7.91221 17.3208 10.0703 17.3208C12.2283 17.3208 14.1623 16.3614 15.4689 14.8458C14.5305 12.8024 12.4661 11.3833 10.0702 11.3833Z" fill="#216CFF"/>
</svg>
