<svg width="57" height="57" viewBox="0 0 57 57" fill="none" xmlns="http://www.w3.org/2000/svg">
<circle cx="28.5012" cy="28.2949" r="28.0344" fill="#2F71F4"/>
<path d="M27.1376 23.0421C26.1912 23.61 25.3016 24.405 24.4687 25.4271C23.6737 26.4493 23.2005 27.4335 23.0491 28.38C23.2005 28.3043 23.5223 28.2664 24.0144 28.2664C24.9608 28.2664 25.7558 28.6071 26.3994 29.2885C27.043 29.97 27.3648 30.8218 27.3648 31.8439C27.3648 32.9039 26.9862 33.8125 26.2291 34.5696C25.4719 35.3267 24.5633 35.7053 23.5033 35.7053C22.2919 35.7053 21.2509 35.251 20.3801 34.3425C19.5473 33.396 19.1309 32.1278 19.1309 30.5378C19.1309 28.645 19.6041 26.8468 20.5505 25.1432C21.5348 23.4396 22.8219 22.02 24.4119 20.8843L27.1376 23.0421ZM37.643 23.0421C36.6965 23.61 35.8069 24.405 34.974 25.4271C34.179 26.4493 33.7058 27.4335 33.5544 28.38C33.7058 28.3043 34.0276 28.2664 34.5197 28.2664C35.4662 28.2664 36.2612 28.6071 36.9047 29.2885C37.5483 29.97 37.8701 30.8218 37.8701 31.8439C37.8701 32.9039 37.4915 33.8125 36.7344 34.5696C35.9772 35.3267 35.0687 35.7053 34.0087 35.7053C32.7973 35.7053 31.7562 35.251 30.8855 34.3425C30.0526 33.396 29.6362 32.1278 29.6362 30.5378C29.6362 28.645 30.1094 26.8468 31.0558 25.1432C32.0401 23.4396 33.3272 22.02 34.9172 20.8843L37.643 23.0421Z" fill="white"/>
</svg>
