<svg width="20" height="20" viewBox="0 0 20 20" fill="none" xmlns="http://www.w3.org/2000/svg">
<path fill-rule="evenodd" clip-rule="evenodd" d="M9.68007 19.6C14.982 19.6 19.2801 15.3019 19.2801 10C19.2801 4.69807 14.982 0.400002 9.68007 0.400002C4.37814 0.400002 0.0800781 4.69807 0.0800781 10C0.0800781 15.3019 4.37814 19.6 9.68007 19.6ZM14.1286 8.44853C14.5972 7.9799 14.5972 7.2201 14.1286 6.75147C13.66 6.28284 12.9002 6.28284 12.4315 6.75147L8.48007 10.7029L6.9286 9.15147C6.45997 8.68284 5.70018 8.68284 5.23155 9.15147C4.76292 9.6201 4.76292 10.3799 5.23155 10.8485L7.63155 13.2485C8.10017 13.7172 8.85997 13.7172 9.3286 13.2485L14.1286 8.44853Z" fill="#2F71F4"/>
<path fill-rule="evenodd" clip-rule="evenodd" d="M9.68007 19.6C14.982 19.6 19.2801 15.3019 19.2801 10C19.2801 4.69807 14.982 0.400002 9.68007 0.400002C4.37814 0.400002 0.0800781 4.69807 0.0800781 10C0.0800781 15.3019 4.37814 19.6 9.68007 19.6ZM14.1286 8.44853C14.5972 7.9799 14.5972 7.2201 14.1286 6.75147C13.66 6.28284 12.9002 6.28284 12.4315 6.75147L8.48007 10.7029L6.9286 9.15147C6.45997 8.68284 5.70018 8.68284 5.23155 9.15147C4.76292 9.6201 4.76292 10.3799 5.23155 10.8485L7.63155 13.2485C8.10017 13.7172 8.85997 13.7172 9.3286 13.2485L14.1286 8.44853Z" fill="url(#paint0_linear_27629_50)"/>
<defs>
<linearGradient id="paint0_linear_27629_50" x1="0.0800781" y1="10" x2="19.2801" y2="10" gradientUnits="userSpaceOnUse">
<stop stop-color="#9643FF" stop-opacity="0"/>
<stop offset="1" stop-color="#9643FF"/>
</linearGradient>
</defs>
</svg>
