<svg width="25" height="26" viewBox="0 0 25 26" fill="none" xmlns="http://www.w3.org/2000/svg">
<path d="M12.2939 2.03101C18.275 2.03101 23.1239 6.87913 23.124 12.8601C23.124 18.8412 18.275 23.6902 12.2939 23.6902C6.31297 23.6901 1.46484 18.8411 1.46484 12.8601C1.46498 6.87921 6.31305 2.03114 12.2939 2.03101ZM12.4219 7.28979C11.5009 6.67592 10.3166 6.61813 9.34082 7.14038C8.36507 7.66269 7.75586 8.6801 7.75586 9.78687V15.9343C7.75602 17.0408 8.36531 18.0576 9.34082 18.5798C10.3166 19.102 11.501 19.0451 12.4219 18.4314L17.0322 15.3572C17.8672 14.8006 18.3691 13.8636 18.3691 12.8601C18.3691 11.8567 17.8671 10.9196 17.0322 10.363L12.4219 7.28979Z" fill="white" stroke="white" stroke-width="2.92893"/>
</svg>
