<svg width="20" height="21" viewBox="0 0 20 21" fill="none" xmlns="http://www.w3.org/2000/svg">
<path fill-rule="evenodd" clip-rule="evenodd" d="M9.82656 20.1C15.1285 20.1 19.4266 15.802 19.4266 10.5C19.4266 5.19809 15.1285 0.900024 9.82656 0.900024C4.52463 0.900024 0.226562 5.19809 0.226562 10.5C0.226562 15.802 4.52463 20.1 9.82656 20.1ZM9.2922 7.10157C8.92398 6.85608 8.45052 6.83319 8.06033 7.04202C7.67014 7.25084 7.42656 7.65747 7.42656 8.10003V12.9C7.42656 13.3426 7.67014 13.7492 8.06033 13.958C8.45052 14.1669 8.92398 14.144 9.2922 13.8985L12.8922 11.4985C13.226 11.2759 13.4266 10.9013 13.4266 10.5C13.4266 10.0988 13.226 9.72413 12.8922 9.50157L9.2922 7.10157Z" fill="#2F71F4"/>
<path fill-rule="evenodd" clip-rule="evenodd" d="M9.82656 20.1C15.1285 20.1 19.4266 15.802 19.4266 10.5C19.4266 5.19809 15.1285 0.900024 9.82656 0.900024C4.52463 0.900024 0.226562 5.19809 0.226562 10.5C0.226562 15.802 4.52463 20.1 9.82656 20.1ZM9.2922 7.10157C8.92398 6.85608 8.45052 6.83319 8.06033 7.04202C7.67014 7.25084 7.42656 7.65747 7.42656 8.10003V12.9C7.42656 13.3426 7.67014 13.7492 8.06033 13.958C8.45052 14.1669 8.92398 14.144 9.2922 13.8985L12.8922 11.4985C13.226 11.2759 13.4266 10.9013 13.4266 10.5C13.4266 10.0988 13.226 9.72413 12.8922 9.50157L9.2922 7.10157Z" fill="url(#paint0_linear_29607_17)"/>
<defs>
<linearGradient id="paint0_linear_29607_17" x1="0.226563" y1="10.5" x2="19.4266" y2="10.5" gradientUnits="userSpaceOnUse">
<stop stop-color="#9643FF" stop-opacity="0"/>
<stop offset="1" stop-color="#9643FF"/>
</linearGradient>
</defs>
</svg>
