<svg width="74" height="74" viewBox="0 0 74 74" fill="none" xmlns="http://www.w3.org/2000/svg">
<path d="M36.8426 73.6852C57.1902 73.6852 73.6852 57.1902 73.6852 36.8426C73.6852 16.495 57.1902 0 36.8426 0C16.495 0 0 16.495 0 36.8426C0 57.1902 16.495 73.6852 36.8426 73.6852Z" fill="white"/>
<path d="M36.8446 68.2871C54.211 68.2871 68.2892 54.2088 68.2892 36.8424C68.2892 19.476 54.211 5.39771 36.8446 5.39771C19.4782 5.39771 5.3999 19.476 5.3999 36.8424C5.3999 54.2088 19.4782 68.2871 36.8446 68.2871Z" fill="white"/>
<path d="M27.689 48.985C27.689 50.0587 28.2799 51.0451 29.2265 51.5518C30.1731 52.0584 31.3217 52.0028 32.215 51.4073L49.6822 39.7625C50.4921 39.2225 50.9786 38.3136 50.9786 37.3402C50.9786 36.3668 50.4921 35.4579 49.6822 34.9179L32.215 23.2731C31.3217 22.6776 30.1731 22.622 29.2265 23.1287C28.2799 23.6353 27.689 24.6217 27.689 25.6954C27.689 86.2324 27.689 44.2515 27.689 48.985Z" fill="#2C405A"/>
</svg>
