<svg width="17" height="17" viewBox="0 0 17 17" fill="none" xmlns="http://www.w3.org/2000/svg">
<path d="M15.0811 0.250244V0.283447C15.2666 0.331167 15.437 0.430159 15.5723 0.57251C15.7079 0.71538 15.8002 0.89259 15.8438 1.08325H15.873V11.5833H15.8438C15.8002 11.7742 15.7082 11.9519 15.5723 12.095C15.378 12.2994 15.1116 12.4172 14.8311 12.4172C14.5506 12.4172 14.284 12.2994 14.0898 12.095C13.9541 11.952 13.8628 11.7741 13.8193 11.5833H13.79V3.96997L2.90723 15.4241L2.9082 15.425C2.90728 15.4261 2.90522 15.426 2.9043 15.427L2.90527 15.428L2.72461 15.6194L2.70215 15.5959C2.6597 15.6233 2.61647 15.6493 2.57031 15.6702C2.44234 15.728 2.30423 15.7587 2.16406 15.76C2.02391 15.7613 1.88482 15.7335 1.75586 15.678C1.62713 15.6225 1.51111 15.5408 1.41406 15.4387C1.31693 15.3365 1.24082 15.2154 1.18945 15.0833C1.13813 14.9512 1.11216 14.8102 1.11328 14.6682C1.11445 14.5262 1.14279 14.3853 1.19629 14.2542C1.21887 14.1988 1.2463 14.1456 1.27734 14.095L1.25977 14.0774L1.42383 13.9055C1.42479 13.9045 1.42579 13.9036 1.42676 13.9026L12.3379 2.41724H5.08105V2.38403C4.89568 2.33627 4.72496 2.2372 4.58984 2.09497C4.39617 1.89096 4.29004 1.61643 4.29004 1.33325C4.29012 1.05027 4.39634 0.77642 4.58984 0.57251C4.72494 0.430298 4.89571 0.331222 5.08105 0.283447V0.250244H15.0811Z" fill="#216CFF" stroke="#216CFF" stroke-width="0.5"/>
</svg>
