<svg width="17" height="18" viewBox="0 0 17 18" fill="none" xmlns="http://www.w3.org/2000/svg">
<path d="M16.0856 16.1503H17C17 16.3928 16.9036 16.6254 16.7321 16.7969C16.5607 16.9684 16.3281 17.0647 16.0856 17.0647V16.1503ZM15.1712 5.17805C15.1712 4.93554 15.2676 4.70297 15.439 4.5315C15.6105 4.36002 15.8431 4.26369 16.0856 4.26369C16.3281 4.26369 16.5607 4.36002 16.7321 4.5315C16.9036 4.70297 17 4.93554 17 5.17805H15.1712ZM5.1133 17.0647C4.8708 17.0647 4.63823 16.9684 4.46675 16.7969C4.29527 16.6254 4.19894 16.3928 4.19894 16.1503C4.19894 15.9078 4.29527 15.6753 4.46675 15.5038C4.63823 15.3323 4.8708 15.236 5.1133 15.236V17.0647ZM0.809416 2.16707C0.722086 2.08272 0.652428 1.98182 0.604507 1.87027C0.556587 1.75871 0.531363 1.63873 0.530308 1.51732C0.529253 1.39592 0.552388 1.27552 0.598363 1.16314C0.644337 1.05077 0.712231 0.948681 0.798083 0.862829C0.883934 0.776978 0.986024 0.709084 1.0984 0.663109C1.21077 0.617134 1.33117 0.594 1.45258 0.595055C1.57398 0.596109 1.69397 0.621334 1.80552 0.669256C1.91708 0.717176 2.01797 0.786833 2.10232 0.874163L0.809416 2.16707ZM15.1712 16.1503V5.17805H17V16.1503H15.1712ZM16.0856 17.0647H5.1133V15.236H16.0856V17.0647ZM15.4391 16.7968L0.809416 2.16707L2.10232 0.874163L16.732 15.5039L15.4391 16.7968Z" fill="#2F71F4"/>
</svg>
