<svg width="17" height="18" viewBox="0 0 17 18" fill="none" xmlns="http://www.w3.org/2000/svg">
<path d="M16.0856 1.50927H17C17 1.26676 16.9036 1.03419 16.7321 0.862719C16.5607 0.691243 16.3281 0.59491 16.0856 0.59491V1.50927ZM15.1712 12.4816C15.1712 12.7241 15.2676 12.9566 15.439 13.1281C15.6105 13.2996 15.8431 13.3959 16.0856 13.3959C16.3281 13.3959 16.5607 13.2996 16.7321 13.1281C16.9036 12.9566 17 12.7241 17 12.4816H15.1712ZM5.1133 0.59491C4.8708 0.59491 4.63823 0.691243 4.46675 0.862719C4.29527 1.03419 4.19894 1.26676 4.19894 1.50927C4.19894 1.75177 4.29527 1.98434 4.46675 2.15582C4.63823 2.32729 4.8708 2.42363 5.1133 2.42363V0.59491ZM0.809416 15.4925C0.722086 15.5769 0.652428 15.6778 0.604507 15.7893C0.556587 15.9009 0.531363 16.0209 0.530308 16.1423C0.529253 16.2637 0.552388 16.3841 0.598363 16.4965C0.644337 16.6088 0.712231 16.7109 0.798083 16.7968C0.883934 16.8826 0.986024 16.9505 1.0984 16.9965C1.21077 17.0425 1.33117 17.0656 1.45258 17.0646C1.57398 17.0635 1.69397 17.0383 1.80552 16.9904C1.91708 16.9424 2.01797 16.8728 2.10232 16.7854L0.809416 15.4925ZM15.1712 1.50927V12.4816H17V1.50927H15.1712ZM16.0856 0.59491H5.1133V2.42363H16.0856V0.59491ZM15.4391 0.862816L0.809416 15.4925L2.10232 16.7854L16.732 2.15572L15.4391 0.862816Z" fill="#2F71F4"/>
</svg>
