<svg width="12" height="15" viewBox="0 0 12 15" fill="none" xmlns="http://www.w3.org/2000/svg">
<path d="M3.99967 2.9283H2.66634C1.92996 2.9283 1.33301 3.52526 1.33301 4.26164V12.2616C1.33301 12.998 1.92996 13.595 2.66634 13.595H9.33301C10.0694 13.595 10.6663 12.998 10.6663 12.2616V4.26164C10.6663 3.52526 10.0694 2.9283 9.33301 2.9283H7.99967M3.99967 2.9283C3.99967 3.66468 4.59663 4.26164 5.33301 4.26164H6.66634C7.40272 4.26164 7.99967 3.66468 7.99967 2.9283M3.99967 2.9283C3.99967 2.19192 4.59663 1.59497 5.33301 1.59497H6.66634C7.40272 1.59497 7.99967 2.19192 7.99967 2.9283" stroke="#2F71F4" stroke-width="1.5" stroke-linecap="round"/>
</svg>
